<svg xmlns="http://www.w3.org/2000/svg" xmlns:xlink="http://www.w3.org/1999/xlink" xmlns:lucid="lucid" width="850.12" height="1231.7"><g transform="translate(-510.3731546205725 -32.40647631478784)" lucid:page-tab-id="0_0"><path d="M511.87 246.13a6 6 0 0 1 6-6H1353a6 6 0 0 1 6 6V1256.6a6 6 0 0 1-6 6H517.86a6 6 0 0 1-6-6z" stroke="#8c4fff" stroke-width="3" fill="#fff" fill-opacity="0"/><path d="M511.87 240.13h56v56h-56v-56z" stroke="#fff" stroke-opacity="0" fill="#8c4fff"/><path d="M555.24 269.58l-4.12-1.76v14.68c3.57-.48 4.12-4.16 4.12-4.3v-8.62zm-5.53 12.95v-14.7l-4.22 1.75v8.7c0 .06.63 3.85 4.23 4.25zm.44-16.44c.2-.1.4-.1.55.02l5.52 2.36c.27.1.43.37.43.62v9.16c-.23 2.03-1.88 5.7-6.35 5.7-4.3 0-5.96-3.67-6.23-5.58v-9.28c0-.25.2-.5.43-.62l5.64-2.4zm7.92.9l-7.64-3.38-7.76 3.28v9.97c0 .07-.04 4 2.35 6.47 1.26 1.33 3.07 2 5.3 2 2.27 0 4.04-.67 5.37-2 2.43-2.46 2.4-6.44 2.4-6.47V267zm-1.4 17.3c-1.58 1.62-3.7 2.43-6.36 2.43-2.63 0-4.74-.8-6.3-2.43-2.83-2.87-2.72-7.3-2.72-7.47v-10.4c0-.3.16-.56.44-.64l8.42-3.58c.2-.07.4-.07.55 0l8.34 3.68c.28.1.43.37.43.63v10.34c0 .18.04 4.56-2.82 7.43zm-29.4-10.23h11.2v1.4h-11.2c-3.93 0-6.75-2.83-7-7.03v-.5c0-3.55 1.86-5.94 5.34-7l-.03-.9c0-4.07 2.23-7.64 5.64-9.04 4.64-1.87 9.85-1.25 12.75 1.55 1.06 1.03 1.88 2.17 2.47 3.5.86-.63 1.96-.93 3.3-.85 2.5.1 4.42 2.4 4.8 5.6 2.1.17 3.5 1.24 4.2 3.23l-1.3.48c-.57-1.6-1.67-2.35-3.55-2.35-.36 0-.67-.26-.67-.66-.2-3.25-2-4.83-3.57-4.9-1.33-.08-2.3.3-2.9 1.1-.15.18-.4.3-.66.26-.24-.04-.47-.22-.55-.45-.6-1.53-1.4-2.82-2.55-3.92-2.5-2.43-7.13-2.95-11.25-1.25-2.86 1.17-4.74 4.2-4.74 7.72 0 .37.04.96.07 1.33.04.37-.15.7-.5.77-3.22.8-4.87 2.72-4.87 5.78v.4c.2 3.5 2.4 5.74 5.57 5.74z" stroke="#fff" stroke-opacity="0" fill="#fff"/><use xlink:href="#a" transform="matrix(1,0,0,1,582.8731546205724,260.134935816181) translate(310.27777777777777 10.666666666666668)"/><use xlink:href="#b" transform="matrix(1,0,0,1,582.8731546205724,260.134935816181) translate(351.3888888888889 10.666666666666668)"/><use xlink:href="#c" transform="matrix(1,0,0,1,582.8731546205724,260.134935816181) translate(395.01851851851853 10.666666666666668)"/><use xlink:href="#d" transform="matrix(1,0,0,1,582.8731546205724,260.134935816181) translate(430.53703703703707 10.666666666666668)"/><path d="M643.2 500.7a6 6 0 0 1 6-6h572.46a6 6 0 0 1 6 6V707a6 6 0 0 1-6 6H649.2a6 6 0 0 1-6-6z" fill="#248814" fill-opacity=".13"/><path d="M643.2 494.7h56v56h-56v-56z" stroke="#fff" stroke-opacity="0" fill="#248814"/><path d="M686.6 516.88c-.17-.17-.36-.25-.58-.25h-5.14v-5.58c-.03-2.54-.97-4.7-2.84-6.4-1.9-1.83-4.15-2.75-6.77-2.75-2.66 0-4.9.83-6.8 2.62-1.9 1.7-2.88 3.87-2.9 6.4v5.66h-5.16c-.24 0-.42.1-.58.25-.15.17-.22.34-.22.6v25.28c0 .42.35.8.8.8H686c.46 0 .8-.38.8-.8v-25.28c0-.2-.06-.38-.2-.54zm-23.48-5.9c.03-2.13.8-3.88 2.37-5.3 1.62-1.5 3.52-2.2 5.74-2.2 2.2 0 4.1.75 5.7 2.25 1.53 1.4 2.3 3.2 2.3 5.32v5.58H663.1zm22.1 30.94H657.2v-23.7h28z" stroke="#fff" stroke-opacity="0" fill="#fff"/><path d="M670.4 532v6.25h1.6v-6.23c2.13-.4 3.63-2.2 3.63-4.35 0-2.43-1.97-4.4-4.4-4.43-2.2-.03-4.06 1.5-4.44 3.68-.4 2.4 1.2 4.68 3.6 5.1zm.82-7.15c.78 0 1.44.27 2 .82.55.56.82 1.22.8 2 .03 1.55-1.2 2.8-2.74 2.82h-.06c-1.56.1-2.92-1.06-3.04-2.62-.1-1.56 1.05-2.93 2.6-3.03.16-.02.3-.02.44 0z" stroke="#fff" stroke-opacity="0" fill="#fff"/><use xlink:href="#e" transform="matrix(1,0,0,1,714.2033517941328,514.6996330772603) translate(202.23456790123456 14.222222222222223)"/><use xlink:href="#f" transform="matrix(1,0,0,1,714.2033517941328,514.6996330772603) translate(255.46913580246914 14.222222222222223)"/><path d="M643.2 773.48a6 6 0 0 1 6-6h572.46a6 6 0 0 1 6 6v456.5a6 6 0 0 1-6 6H649.2a6 6 0 0 1-6-6z" fill="#147eba" fill-opacity=".13"/><path d="M643.2 767.48h56v56h-56v-56z" stroke="#fff" stroke-opacity="0" fill="#147eba"/><path d="M686.6 789.66c-.17-.17-.36-.25-.58-.25h-5.14v-5.56c-.03-2.54-.97-4.7-2.84-6.4-1.9-1.84-4.15-2.76-6.77-2.76-2.66 0-4.9.84-6.8 2.63-1.9 1.7-2.88 3.87-2.9 6.4v5.67h-5.16c-.24 0-.42.08-.58.25-.15.16-.22.33-.22.58v25.3c0 .4.35.78.8.78H686c.46 0 .8-.37.8-.8V790.2c0-.2-.06-.37-.2-.54zm-23.48-5.9c.03-2.13.8-3.88 2.37-5.3 1.62-1.5 3.52-2.2 5.74-2.2 2.2 0 4.1.75 5.7 2.25 1.53 1.43 2.3 3.22 2.3 5.34v5.57H663.1zm22.1 30.94H657.2V791h28z" stroke="#fff" stroke-opacity="0" fill="#fff"/><path d="M670.4 804.8v6.24h1.6v-6.23c2.13-.38 3.63-2.18 3.63-4.34 0-2.44-1.97-4.42-4.4-4.43-2.2-.03-4.06 1.5-4.44 3.68-.4 2.4 1.2 4.7 3.6 5.1zm.82-7.17c.78 0 1.44.27 2 .83.55.55.82 1.2.8 2 .03 1.54-1.2 2.8-2.74 2.82h-.06c-1.56.12-2.92-1.05-3.04-2.62-.1-1.55 1.05-2.92 2.6-3.03h.44z" stroke="#fff" stroke-opacity="0" fill="#fff"/><use xlink:href="#g" transform="matrix(1,0,0,1,714.2033517941323,787.4844106034795) translate(198.77777777777777 14.222222222222223)"/><use xlink:href="#h" transform="matrix(1,0,0,1,714.2033517941323,787.4844106034795) translate(258.9259259259259 14.222222222222223)"/><path d="M875.43 553.85h120v120h-120v-120z" stroke="#000" stroke-opacity="0" fill="#ed7100"/><path d="M915.95 633.34h37.46v-37.47h-37.45v37.47zm40.48-37.47h5.97v2.94h-5.97v6.06h5.97v3.03h-5.97v4.44h5.97v3.02h-5.97v5.97h5.97v3.02h-5.97v5.96h5.97v3.04h-5.97v.25c0 1.5-1.26 2.76-2.77 2.76h-.25v5.97h-2.93v-5.97h-6.05v5.97h-3.02v-5.97h-4.45v5.97h-3.03v-5.97h-5.96v5.97h-3.03v-5.97h-5.96v5.97h-3.02v-5.97h-.26c-1.52 0-2.78-1.26-2.78-2.77v-.26h-4.45v-3.03h4.45v-5.95h-4.45v-3.02h4.45v-5.97h-4.45v-3.02h4.45v-4.45h-4.45v-3.04h4.45v-6.05h-4.45v-2.93h4.45v-.25c0-1.5 1.26-2.77 2.77-2.77h.25v-5.96h3.02v5.95h5.96v-5.96h3.03v5.95h5.96v-5.96h3.03v5.95h4.45v-5.96h3.02v5.95h6.05v-5.96h2.94v5.95h.26c1.5 0 2.77 1.26 2.77 2.77v.25zm-19.48 56.8c0 .07-.1.16-.17.16h-40.15c-.1 0-.17-.1-.17-.17V612.5c0-.08.08-.16.16-.16h8.83v-3.03h-8.83c-1.76 0-3.2 1.44-3.2 3.2v40.16c0 1.76 1.44 3.2 3.2 3.2h40.16c1.76 0 3.2-1.44 3.2-3.2v-7.3h-3.03v7.3zm40.48-77.63v40.15c0 1.76-1.42 3.2-3.2 3.2h-8.8v-3.04h8.8c.1 0 .18-.08.18-.17v-40.16c0-.08-.07-.17-.16-.17H934.1c-.1 0-.18.1-.18.17v8.82h-3.02v-8.82c0-1.76 1.43-3.2 3.2-3.2h40.14c1.76 0 3.2 1.44 3.2 3.2z" stroke="#000" stroke-opacity="0" fill="#fff"/><path d="M720.32 828.35h120v120h-120v-120z" stroke="#000" stroke-opacity="0" fill="#ed7100"/><path d="M760.83 907.84h37.47v-37.47h-37.47v37.47zm40.5-37.47h5.96v2.95h-5.98v6.04h5.97v3.03h-5.98v4.44h5.97v3.02h-5.98v5.97h5.97v3.02h-5.98v5.97h5.97v3.02h-5.98v.25c0 1.5-1.26 2.76-2.77 2.76h-.25v5.97h-2.94v-5.97h-6.05v5.97h-3v-5.97h-4.47v5.97h-3.02v-5.97h-5.95v5.97h-3.03v-5.97h-5.96v5.97h-3.03v-5.97h-.25c-1.5 0-2.77-1.26-2.77-2.77v-.26h-4.44v-3.02h4.45v-5.97h-4.44v-3.02h4.45v-5.97h-4.44v-3.02h4.45v-4.45h-4.44v-3.04h4.45v-6.04h-4.44v-2.95h4.45v-.25c0-1.5 1.27-2.77 2.78-2.77h.25v-5.96h3.03v5.95h5.96v-5.96h3.03v5.95h5.96v-5.96h3.03v5.95h4.46v-5.96h3v5.95h6.06v-5.96h2.94v5.95h.25c1.5 0 2.77 1.26 2.77 2.77v.25zm-19.5 56.8c0 .07-.08.16-.16.16H741.5c-.07 0-.15-.1-.15-.17V887c0-.08.08-.16.16-.16h8.83v-3.02h-8.82c-1.75 0-3.18 1.42-3.18 3.2v40.14c0 1.76 1.43 3.2 3.2 3.2h40.15c1.76 0 3.2-1.44 3.2-3.2v-7.3h-3.04v7.3zm40.5-77.63v40.16c0 1.76-1.44 3.2-3.2 3.2h-8.82v-3.04h8.83c.08 0 .17-.08.17-.16v-40.16c0-.08-.1-.16-.17-.16h-40.15c-.1 0-.17.08-.17.16v8.82h-3v-8.82c0-1.76 1.4-3.2 3.18-3.2h40.15c1.76 0 3.2 1.44 3.2 3.2z" stroke="#000" stroke-opacity="0" fill="#fff"/><use xlink:href="#i" transform="matrix(1,0,0,1,690.3218062033308,957.3512110453801) translate(37.20987654320987 14.222222222222223)"/><use xlink:href="#j" transform="matrix(1,0,0,1,690.3218062033308,957.3512110453801) translate(111.28395061728395 14.222222222222223)"/><path d="M1035.43 828.35h120v120h-120v-120z" stroke="#000" stroke-opacity="0" fill="#ed7100"/><path d="M1075.94 907.84h37.47v-37.47h-37.46v37.47zm40.5-37.47h5.96v2.95h-5.97v6.04h5.97v3.03h-5.97v4.44h5.97v3.02h-5.97v5.97h5.97v3.02h-5.97v5.97h5.97v3.02h-5.97v.25c0 1.5-1.26 2.76-2.77 2.76h-.25v5.97h-2.93v-5.97h-6.05v5.97h-3.02v-5.97h-4.46v5.97h-3.02v-5.97h-5.96v5.97h-3.03v-5.97h-5.96v5.97h-3.03v-5.97h-.25c-1.52 0-2.78-1.26-2.78-2.77v-.26h-4.45v-3.02h4.45v-5.97h-4.45v-3.02h4.45v-5.97h-4.45v-3.02h4.45v-4.45h-4.45v-3.04h4.45v-6.04h-4.45v-2.95h4.45v-.25c0-1.5 1.26-2.77 2.77-2.77h.24v-5.96h3.03v5.95h5.96v-5.96h3.03v5.95h5.96v-5.96h3.02v5.95h4.46v-5.96h3.02v5.95h6.05v-5.96h2.94v5.95h.26c1.5 0 2.77 1.26 2.77 2.77v.25zm-19.5 56.8c0 .07-.08.16-.16.16h-40.15c-.1 0-.17-.1-.17-.17V887c0-.08.08-.16.16-.16h8.83v-3.02h-8.83c-1.76 0-3.2 1.42-3.2 3.2v40.14c0 1.76 1.44 3.2 3.2 3.2h40.16c1.76 0 3.2-1.44 3.2-3.2v-7.3h-3.04v7.3zm40.5-77.63v40.16c0 1.76-1.43 3.2-3.2 3.2h-8.82v-3.04h8.82c.1 0 .17-.08.17-.16v-40.16c0-.08-.08-.16-.16-.16h-40.15c-.1 0-.18.08-.18.16v8.82h-3.02v-8.82c0-1.76 1.42-3.2 3.2-3.2h40.14c1.77 0 3.2 1.44 3.2 3.2z" stroke="#000" stroke-opacity="0" fill="#fff"/><path d="M1035.43 1055.02h120v120h-120v-120z" stroke="#000" stroke-opacity="0" fill="#ed7100"/><path d="M1075.94 1134.5h37.47v-37.46h-37.46v37.47zm40.5-37.46h5.96v2.94h-5.97v6.05h5.97v3.02h-5.97v4.46h5.97v3.03h-5.97v5.96h5.97v3.02h-5.97v5.96h5.97v3.03h-5.97v.26c0 1.5-1.26 2.77-2.77 2.77h-.25v5.96h-2.93v-5.97h-6.05v5.96h-3.02v-5.97h-4.46v5.96h-3.02v-5.97h-5.96v5.96h-3.03v-5.97h-5.96v5.96h-3.03v-5.97h-.25c-1.52 0-2.78-1.26-2.78-2.77v-.25h-4.45v-3.02h4.45v-5.96h-4.45v-3.03h4.45v-5.97h-4.45v-3.02h4.45v-4.45h-4.45v-3.02h4.45v-6.05h-4.45v-2.94h4.45v-.25c0-1.52 1.26-2.78 2.77-2.78h.24v-5.97h3.03v5.97h5.96v-5.97h3.03v5.97h5.96v-5.97h3.02v5.97h4.46v-5.97h3.02v5.97h6.05v-5.97h2.94v5.97h.26c1.5 0 2.77 1.26 2.77 2.77v.24zm-19.5 56.8c0 .07-.08.15-.16.15h-40.15c-.1 0-.17-.1-.17-.17v-40.16c0-.08.08-.16.16-.16h8.83v-3.02h-8.83c-1.76 0-3.2 1.43-3.2 3.2v40.15c0 1.76 1.44 3.2 3.2 3.2h40.16c1.76 0 3.2-1.44 3.2-3.2v-7.3h-3.04v7.3zm40.5-77.63v40.16c0 1.77-1.43 3.2-3.2 3.2h-8.82v-3.03h8.82c.1 0 .17-.08.17-.17v-40.15c0-.07-.08-.16-.16-.16h-40.15c-.1 0-.18.1-.18.17v8.83h-3.02v-8.82c0-1.75 1.42-3.18 3.2-3.18h40.14c1.77 0 3.2 1.43 3.2 3.2z" stroke="#000" stroke-opacity="0" fill="#fff"/><use xlink:href="#k" transform="matrix(1,0,0,1,1005.4330708661414,1184.0178777120466) translate(72.27160493827161 14.222222222222223)"/><path d="M720.32 1055.02h120v120h-120v-120z" stroke="#000" stroke-opacity="0" fill="#c925d1"/><path d="M743.45 1076.04L757.4 1090l-2.1 2.1-13.95-13.96v11.34h-3.03v-14.95c0-.84.67-1.5 1.5-1.5h14.97v3h-11.35zm78.87-1.5v14.94h-3.02v-11.34l-13.95 13.95-2.1-2.1 13.95-13.96h-11.34v-3.02h14.95c.85 0 1.52.67 1.52 1.5zm-3.02 66h3.02v14.97c0 .85-.67 1.52-1.5 1.52h-14.96V1154h11.34l-13.95-13.95 2.1-2.1 13.95 13.94v-11.35zm-.76-26.7c0-4.95-5.7-9.9-15.37-13.2l1-2.84c11 3.78 17.4 9.66 17.4 16.04 0 6.4-6.4 12.27-17.4 15.96l-1-2.77c9.66-3.28 15.37-8.23 15.37-13.2zm-76.35 0c0 4.8 5.36 9.58 14.35 12.77l-1 2.87c-10.42-3.78-16.4-9.4-16.4-15.63 0-6.2 5.98-11.84 16.4-15.62l1 2.77c-9 3.27-14.36 8.05-14.36 12.84zm15.2 26.2L743.44 1154h11.34v3.02h-14.97c-.84 0-1.5-.67-1.5-1.5v-14.97h3.02v11.34l13.94-13.95 2.1 2.1zm22.92-38.13c-10.75 0-16.46-2.76-16.46-3.85 0-1.18 5.7-3.86 16.46-3.86 10.75 0 16.47 2.67 16.47 3.85 0 1.1-5.73 3.86-16.48 3.86zm.1 11.7c-10.35 0-16.56-2.87-16.56-4.38v-7.3c3.7 2.1 10.25 3.02 16.46 3.02 6.22 0 12.77-.93 16.47-3.03v7.32c0 1.5-6.23 4.37-16.4 4.37zm0 11.4c-10.35 0-16.56-2.76-16.56-4.27v-7.4c3.6 2.1 10.08 3.2 16.55 3.2 6.4 0 12.77-1.1 16.4-3.2v7.4c0 1.5-6.23 4.28-16.4 4.28zm-.1 10.26c-10.67 0-16.46-2.85-16.46-4.28v-6.22c3.6 2.2 10.08 3.28 16.55 3.28 6.4 0 12.77-1.1 16.4-3.28v6.22c0 1.43-5.8 4.28-16.48 4.28zm0-44.1c-9.4 0-19.5 2.2-19.5 6.9v32.92c0 4.8 9.84 7.3 19.5 7.3s19.5-2.5 19.5-7.3v-32.93c0-4.7-10.1-6.9-19.5-6.9z" stroke="#000" stroke-opacity="0" fill="#fff"/><use xlink:href="#l" transform="matrix(1,0,0,1,690.3218062033308,1184.0178777120466) translate(35.28395061728394 14.222222222222223)"/><use xlink:href="#m" transform="matrix(1,0,0,1,690.3218062033308,1184.0178777120466) translate(64.86419753086419 14.222222222222223)"/><path d="M935.43 296.44c33.12 0 60 26.88 60 60 0 33.12-26.88 60-60 60-33.12 0-60-26.88-60-60 0-33.12 26.88-60 60-60zm0 114.48c30.12 0 54.48-24.36 54.48-54.48 0-30.12-24.35-54.48-54.47-54.48-30.12 0-54.48 24.36-54.48 54.48 0 30.12 24.36 54.48 54.48 54.48zm.6-89.28c11.28 0 22.2 3.36 29.76 9.48.6.48.95 1.32.95 2.04v56.64c0 1.56-1.2 2.76-2.64 2.76h-9.6c-1.55 0-2.75-1.2-2.75-2.76v-49.2c-4.68-2.16-9.36-3.96-15.72-3.96-6.72 0-11.76 1.92-17.04 4.44v48.72c0 1.56-1.2 2.76-2.77 2.76h-9.48c-1.44 0-2.64-1.2-2.64-2.76v-55.56c0-.72.25-1.44.85-2.04 7.68-6.72 19.08-10.56 31.08-10.56zm25.32 65.52V334.6c-6.6-4.8-15.72-7.56-25.32-7.56-10.2 0-19.8 3.12-26.52 8.52v51.6h3.97V339.4c0-.96.6-1.92 1.56-2.4 6.24-3.12 12.48-5.88 21-5.88 8.16 0 13.8 2.64 19.32 5.04l.24.12c.95.48 1.67 1.44 1.67 2.52v48.36z" stroke="#000" stroke-opacity="0" fill="#4d27aa"/><use xlink:href="#n" transform="matrix(1,0,0,1,845.4330708661416,425.4412279121934) translate(23.759259259259267 13.166666666666668)"/><use xlink:href="#o" transform="matrix(1,0,0,1,845.4330708661416,425.4412279121934) translate(54.83333333333334 13.166666666666668)"/><use xlink:href="#p" transform="matrix(1,0,0,1,845.4330708661416,425.4412279121934) translate(103.68518518518519 13.166666666666668)"/><path d="M935.43 674.85v70.25a6 6 0 0 1-6 6h-143.1a6 6 0 0 0-6 6v55.26" stroke="#5e5e5e" stroke-width="2" fill="none"/><path d="M936.4 674.88h-1.94v-1.03h1.95z" stroke="#5e5e5e" stroke-width=".05" fill="#5e5e5e"/><path d="M780.32 826.35l-7.5-13h15z" stroke="#5e5e5e" stroke-width="2" fill="#5e5e5e"/><path d="M841.32 854.95h178.12" stroke="#5e5e5e" stroke-width="2" fill="none"/><path d="M841.35 855.92h-1.03v-1.95h1.03z" stroke="#5e5e5e" stroke-width=".05" fill="#5e5e5e"/><path d="M1033.43 854.95l-13 7.5v-15z" stroke="#5e5e5e" stroke-width="2" fill="#5e5e5e"/><path d="M936.4 552.85h-1.94v-108.9h1.95z" stroke="#5e5e5e" stroke-width=".05" fill="#5e5e5e"/><path d="M936.4 553.85h-1.94v-1.03h1.95z" fill="#5e5e5e"/><path stroke="#5e5e5e" stroke-width=".05" fill="#5e5e5e"/><path d="M940.34 426.94h-9.8l4.9-8.5z" fill="#5e5e5e"/><path d="M941.47 426.94h-2.25l-3.8-6.55-3.77 6.54h-2.25l6.03-10.45z" stroke="#5e5e5e" stroke-width=".05" fill="#5e5e5e"/><path d="M983.3 59.8c0 13.45-10.67 24.64-24.6 24.64-13.43 0-24.6-10.83-24.6-24.63 0-13.44 10.7-24.63 24.6-24.63 13.45 0 24.6 10.7 24.6 24.64m-6.7 32.6l-17.9 25.12-17.87-25.1h-18.36v61.75h72.96V92.4zm-66.73 8.1c0 7.62-6.24 13.8-13.8 13.8-7.68 0-13.92-6.18-13.92-13.8 0-7.6 6.24-13.92 13.92-13.92 7.56 0 13.8 6.3 13.8 13.92m-3.96 19.28l-9.83 13.8-10.32-13.8h-10.32v34.4h41.16v-34.4z" stroke="#000" stroke-opacity="0" stroke-width="5.54" fill="#ffd9d9"/><path d="M934.1 59.8c0 13.4 10.73 24.18 23.68 24.54l6.3-48.26c-1.8-.47-3.6-.47-5.4-.47-13.44-.47-24.58 10.32-24.58 24.2m6.72 32.6h-18.36v61.77h26.88l5.33-42.44zm-58.67 8.06c0 7.6 6.3 13.88 13.85 13.88h1.4L901 88c-1.4-.46-3.2-.93-5-.93-7.54 0-13.85 5.8-13.85 13.4" stroke="#000" stroke-opacity="0" stroke-width="5.54" fill="#fff" fill-opacity=".2"/><path d="M995.43 92.45v61.72h-120v-34.4l11.64-10.12-3.84-7.55 4.56-10 7.67-4.07 10.08 4.07 16.92.35 18.96-19.88L935.9 57l10.8-16.86 13.93-2.2 17.88 8.13 2.77 16.62-4.44 11.73z" stroke="#000" stroke-opacity="0" stroke-width=".01" fill="#a62500" fill-opacity="0"/><use xlink:href="#q" transform="matrix(1,0,0,1,845.4330708661416,163.1740039900646) translate(72.62962962962962 13.166666666666668)"/><path d="M936.4 280.45h-1.94V178.67h1.95zm0-115.78h-1.94v-9.5h1.95z" stroke="#5e5e5e" stroke-width=".05" fill="#5e5e5e"/><path d="M936.4 155.2h-1.94v-1.03h1.95z" fill="#5e5e5e"/><path stroke="#5e5e5e" stroke-width=".05" fill="#5e5e5e"/><path d="M935.43 294.44l-7.5-13h15z" fill="#5e5e5e"/><path d="M935.43 296.4l-9.2-15.92h18.4zm-5.8-13.97l5.8 10.06 5.8-10.07z" stroke="#5e5e5e" stroke-width=".05" fill="#5e5e5e"/><path d="M1095.43 949.35v89.68" stroke="#5e5e5e" stroke-width="2" fill="none"/><path d="M1096.4 949.38h-1.94v-1.03h1.95z" stroke="#5e5e5e" stroke-width=".05" fill="#5e5e5e"/><path d="M1095.43 1053.02l-7.5-13h15z" stroke="#5e5e5e" stroke-width="2" fill="#5e5e5e"/><path d="M841.32 919.9h90.56a6 6 0 0 1 6 6v183.12a6 6 0 0 0 6 6h75.56" stroke="#5e5e5e" stroke-width="2" fill="none"/><path d="M841.35 920.88h-1.03v-1.95h1.03z" stroke="#5e5e5e" stroke-width=".05" fill="#5e5e5e"/><path d="M1033.43 1115.02l-13 7.5v-15z" stroke="#5e5e5e" stroke-width="2" fill="#5e5e5e"/><path d="M781.3 1039.03h-1.95v-61.68h1.95zm0-82.68h-1.95v-7h1.95z" stroke="#5e5e5e" stroke-width=".05" fill="#5e5e5e"/><path d="M781.3 949.38h-1.95v-1.03h1.95z" fill="#5e5e5e"/><path stroke="#5e5e5e" stroke-width=".05" fill="#5e5e5e"/><path d="M780.32 1053.02l-7.5-13h15z" fill="#5e5e5e"/><path d="M780.32 1054.97l-9.2-15.92h18.4zm-5.8-13.97l5.8 10.07 5.8-10.07z" stroke="#5e5e5e" stroke-width=".05" fill="#5e5e5e"/><path d="M1034.43 919.9h-33a6 6 0 0 0-6 6v85.7a6 6 0 0 1-6 6h-78.1a6 6 0 0 0-6 6v85.42a6 6 0 0 1-6 6H856.3" stroke="#5e5e5e" stroke-width="2" fill="none"/><path d="M1035.43 920.88h-1.02v-1.95h1.03z" stroke="#5e5e5e" stroke-width=".05" fill="#5e5e5e"/><path d="M842.32 1115.02l13-7.5v15z" stroke="#5e5e5e" stroke-width="2" fill="#5e5e5e"/><path d="M812 460.7a6 6 0 0 1 6-6h157.66a6 6 0 0 1 6 6v15a6 6 0 0 1-6 6H818a6 6 0 0 1-6-6z" fill="none"/><use xlink:href="#r" transform="matrix(1,0,0,1,811.9999999999998,454.6996330772603) translate(51.111111111111114 16.166666666666668)"/><use xlink:href="#s" transform="matrix(1,0,0,1,811.9999999999998,454.6996330772603) translate(89.25925925925927 16.166666666666668)"/><path d="M752.8 719a6 6 0 0 1 6-6h194.67a6 6 0 0 1 6 6v36a6 6 0 0 1-6 6H758.8a6 6 0 0 1-6-6z" fill="none"/><use xlink:href="#t" transform="matrix(1,0,0,1,752.8033517941328,712.9962095905537) translate(73.66666666666666 26.666666666666668)"/><use xlink:href="#u" transform="matrix(1,0,0,1,752.8033517941328,712.9962095905537) translate(103.7037037037037 26.666666666666668)"/><path d="M815.43 819.36a6 6 0 0 1 6-6h228a6 6 0 0 1 6 6v48a6 6 0 0 1-6 6h-228a6 6 0 0 1-6-6z" fill="none"/><use xlink:href="#t" transform="matrix(1,0,0,1,815.4330708661422,813.362475417321) translate(90.16666666666666 32.66666666666667)"/><use xlink:href="#v" transform="matrix(1,0,0,1,815.4330708661422,813.362475417321) translate(120.2037037037037 32.66666666666667)"/><path d="M900.66 1094.02a6 6 0 0 1 6-6h145a6 6 0 0 1 6 6v17a6 6 0 0 1-6 6h-145a6 6 0 0 1-6-6z" fill="none"/><use xlink:href="#t" transform="matrix(1,0,0,1,900.662789938151,1088.0178777120466) translate(48.666666666666664 17.166666666666668)"/><use xlink:href="#w" transform="matrix(1,0,0,1,900.662789938151,1088.0178777120466) translate(78.7037037037037 17.166666666666668)"/><path d="M1076.4 999.82a6 6 0 0 1 6-6h103.03a6 6 0 0 1 6 6v16.2a6 6 0 0 1-6 6H1082.4a6 6 0 0 1-6-6z" fill="none"/><use xlink:href="#t" transform="matrix(1,0,0,1,1076.403248821638,993.8209538839217) translate(28.166666666666664 17.166666666666668)"/><use xlink:href="#w" transform="matrix(1,0,0,1,1076.403248821638,993.8209538839217) translate(58.2037037037037 17.166666666666668)"/><path d="M1095.43 1054.02v-86.86" stroke="#5e5e5e" stroke-width="2" fill="none"/><path d="M1096.4 1055.02h-1.94V1054h1.95z" stroke="#5e5e5e" stroke-width=".05" fill="#5e5e5e"/><path d="M1095.43 953.16l7.5 13h-15z" stroke="#5e5e5e" stroke-width="2" fill="#5e5e5e"/><path d="M1034.43 1115.02h-90.55a6 6 0 0 1-6-6v-183.1a6 6 0 0 0-6-6H856.3" stroke="#5e5e5e" stroke-width="2" fill="none"/><path d="M1035.43 1116h-1.02v-1.96h1.03z" stroke="#5e5e5e" stroke-width=".05" fill="#5e5e5e"/><path d="M842.32 919.9l13-7.5v15z" stroke="#5e5e5e" stroke-width="2" fill="#5e5e5e"/><path d="M935.43 552.85v1" stroke="#5e5e5e" stroke-width="2" fill="none"/><path d="M936.4 553.85h-1.94v-1.03h1.95z" stroke="#5e5e5e" stroke-width=".05" fill="#5e5e5e"/><path d="M935.43 544.17l7.5 13h-15z" stroke="#5e5e5e" stroke-width="2" fill="#5e5e5e"/><path d="M841.32 1115.02h58a6 6 0 0 0 6-6v-85.4a6 6 0 0 1 6-6h78.1a6 6 0 0 0 6-6v-85.7a6 6 0 0 1 6-6h18.02" stroke="#5e5e5e" stroke-width="2" fill="none"/><path d="M841.35 1116h-1.03v-1.96h1.03z" stroke="#5e5e5e" stroke-width=".05" fill="#5e5e5e"/><path d="M1033.43 919.9l-13 7.5v-15z" stroke="#5e5e5e" stroke-width="2" fill="#5e5e5e"/><path d="M781.3 1054.02h-1.95v-76.67h1.95z" stroke="#5e5e5e" stroke-width=".05" fill="#5e5e5e"/><path d="M781.3 1055.02h-1.95V1054h1.95z" fill="#5e5e5e"/><path stroke="#5e5e5e" stroke-width=".05" fill="#5e5e5e"/><path d="M783.8 956.35h-6.94l3.46-6z" fill="#5e5e5e"/><path d="M784.9 956.35h-2.24l-2.34-4.05-2.34 4.05h-2.25l4.6-7.95z" stroke="#5e5e5e" stroke-width=".05" fill="#5e5e5e"/><path d="M998.43 803.35a6 6 0 0 1 6-6h181a6 6 0 0 1 6 6v19a6 6 0 0 1-6 6h-181a6 6 0 0 1-6-6z" fill="none"/><g><use xlink:href="#x" transform="matrix(1,0,0,1,998.4330708661423,797.3512110453801) translate(49.88271604938271 19.055555555555557)"/><use xlink:href="#j" transform="matrix(1,0,0,1,998.4330708661423,797.3512110453801) translate(111.61111111111111 19.055555555555557)"/></g><path d="M1030 854.95H856.3M1031 854.95" stroke="#5e5e5e" stroke-width="2" fill="none"/><path d="M842.32 854.95l13-7.5v15z" stroke="#5e5e5e" stroke-width="2" fill="#5e5e5e"/><path d="M858 861.44a6 6 0 0 1 6-6h142.86a6 6 0 0 1 6 6v17.74a6 6 0 0 1-6 6H864a6 6 0 0 1-6-6z" fill="none"/><g><use xlink:href="#t" transform="matrix(1,0,0,1,858.0022919192536,855.4397979047309) translate(47.666666666666664 17.666666666666668)"/><use xlink:href="#u" transform="matrix(1,0,0,1,858.0022919192536,855.4397979047309) translate(77.7037037037037 17.666666666666668)"/></g><path d="M694 983a6 6 0 0 1 6-6h160.66a6 6 0 0 1 6 6v13.33a6 6 0 0 1-6 6H700a6 6 0 0 1-6-6z" fill="none"/><g><use xlink:href="#y" transform="matrix(1,0,0,1,693.9852288930447,976.9962095905536) translate(63.83333333333333 16.555555555555557)"/></g><path d="M951.43 589.85a6 6 0 0 1 6-6h228a6 6 0 0 1 6 6v48a6 6 0 0 1-6 6h-228a6 6 0 0 1-6-6z" fill="none"/><g><use xlink:href="#z" transform="matrix(1,0,0,1,951.4330708661423,583.8498337401107) translate(58.61111111111111 16.666666666666664)"/><use xlink:href="#A" transform="matrix(1,0,0,1,951.4330708661423,583.8498337401107) translate(115.57407407407408 16.666666666666664)"/><use xlink:href="#B" transform="matrix(1,0,0,1,951.4330708661423,583.8498337401107) translate(162.87037037037038 16.666666666666664)"/><use xlink:href="#C" transform="matrix(1,0,0,1,951.4330708661423,583.8498337401107) translate(67.42592592592592 32.666666666666664)"/><use xlink:href="#D" transform="matrix(1,0,0,1,951.4330708661423,583.8498337401107) translate(139.24074074074076 32.666666666666664)"/><use xlink:href="#E" transform="matrix(1,0,0,1,951.4330708661423,583.8498337401107) translate(70.01851851851852 48.66666666666667)"/><use xlink:href="#F" transform="matrix(1,0,0,1,951.4330708661423,583.8498337401107) translate(136.64814814814815 48.66666666666667)"/></g><defs><path fill="#cc4e00" d="M137 0h-34L2-248h35l83 218 83-218h36" id="G"/><path fill="#cc4e00" d="M24-231v-30h32v30H24zM24 0v-190h32V0H24" id="H"/><path fill="#cc4e00" d="M114-163C36-179 61-72 57 0H25l-1-190h30c1 12-1 29 2 39 6-27 23-49 58-41v29" id="I"/><path fill="#cc4e00" d="M59-47c-2 24 18 29 38 22v24C64 9 27 4 27-40v-127H5v-23h24l9-43h21v43h35v23H59v120" id="J"/><path fill="#cc4e00" d="M84 4C-5 8 30-112 23-190h32v120c0 31 7 50 39 49 72-2 45-101 50-169h31l1 190h-30c-1-10 1-25-2-33-11 22-28 36-60 37" id="K"/><path fill="#cc4e00" d="M141-36C126-15 110 5 73 4 37 3 15-17 15-53c-1-64 63-63 125-63 3-35-9-54-41-54-24 1-41 7-42 31l-33-3c5-37 33-52 76-52 45 0 72 20 72 64v82c-1 20 7 32 28 27v20c-31 9-61-2-59-35zM48-53c0 20 12 33 32 33 41-3 63-29 60-74-43 2-92-5-92 41" id="L"/><path fill="#cc4e00" d="M24 0v-261h32V0H24" id="M"/><g id="a"><use transform="matrix(0.03703703703703704,0,0,0.03703703703703704,0,0)" xlink:href="#G"/><use transform="matrix(0.03703703703703704,0,0,0.03703703703703704,8.62962962962963,0)" xlink:href="#H"/><use transform="matrix(0.03703703703703704,0,0,0.03703703703703704,11.555555555555557,0)" xlink:href="#I"/><use transform="matrix(0.03703703703703704,0,0,0.03703703703703704,15.962962962962965,0)" xlink:href="#J"/><use transform="matrix(0.03703703703703704,0,0,0.03703703703703704,19.666666666666675,0)" xlink:href="#K"/><use transform="matrix(0.03703703703703704,0,0,0.03703703703703704,27.074074074074076,0)" xlink:href="#L"/><use transform="matrix(0.03703703703703704,0,0,0.03703703703703704,34.48148148148149,0)" xlink:href="#M"/></g><path fill="#cc4e00" d="M115-194c55 1 70 41 70 98S169 2 115 4C84 4 66-9 55-30l1 105H24l-1-265h31l2 30c10-21 28-34 59-34zm-8 174c40 0 45-34 45-75s-6-73-45-74c-42 0-51 32-51 76 0 43 10 73 51 73" id="N"/><path fill="#cc4e00" d="M108 0H70L1-190h34L89-25l56-165h34" id="O"/><path fill="#cc4e00" d="M100-194c63 0 86 42 84 106H49c0 40 14 67 53 68 26 1 43-12 49-29l28 8c-11 28-37 45-77 45C44 4 14-33 15-96c1-61 26-98 85-98zm52 81c6-60-76-77-97-28-3 7-6 17-6 28h103" id="P"/><g id="b"><use transform="matrix(0.03703703703703704,0,0,0.03703703703703704,0,0)" xlink:href="#N"/><use transform="matrix(0.03703703703703704,0,0,0.03703703703703704,7.407407407407408,0)" xlink:href="#I"/><use transform="matrix(0.03703703703703704,0,0,0.03703703703703704,11.814814814814817,0)" xlink:href="#H"/><use transform="matrix(0.03703703703703704,0,0,0.03703703703703704,14.740740740740744,0)" xlink:href="#O"/><use transform="matrix(0.03703703703703704,0,0,0.03703703703703704,21.407407407407412,0)" xlink:href="#L"/><use transform="matrix(0.03703703703703704,0,0,0.03703703703703704,28.81481481481482,0)" xlink:href="#J"/><use transform="matrix(0.03703703703703704,0,0,0.03703703703703704,32.518518518518526,0)" xlink:href="#P"/></g><path fill="#cc4e00" d="M96-169c-40 0-48 33-48 73s9 75 48 75c24 0 41-14 43-38l32 2c-6 37-31 61-74 61-59 0-76-41-82-99-10-93 101-131 147-64 4 7 5 14 7 22l-32 3c-4-21-16-35-41-35" id="Q"/><path fill="#cc4e00" d="M100-194c62-1 85 37 85 99 1 63-27 99-86 99S16-35 15-95c0-66 28-99 85-99zM99-20c44 1 53-31 53-75 0-43-8-75-51-75s-53 32-53 75 10 74 51 75" id="R"/><path fill="#cc4e00" d="M85-194c31 0 48 13 60 33l-1-100h32l1 261h-30c-2-10 0-23-3-31C134-8 116 4 85 4 32 4 16-35 15-94c0-66 23-100 70-100zm9 24c-40 0-46 34-46 75 0 40 6 74 45 74 42 0 51-32 51-76 0-42-9-74-50-73" id="S"/><g id="c"><use transform="matrix(0.03703703703703704,0,0,0.03703703703703704,0,0)" xlink:href="#Q"/><use transform="matrix(0.03703703703703704,0,0,0.03703703703703704,6.666666666666668,0)" xlink:href="#M"/><use transform="matrix(0.03703703703703704,0,0,0.03703703703703704,9.592592592592595,0)" xlink:href="#R"/><use transform="matrix(0.03703703703703704,0,0,0.03703703703703704,17.000000000000004,0)" xlink:href="#K"/><use transform="matrix(0.03703703703703704,0,0,0.03703703703703704,24.407407407407412,0)" xlink:href="#S"/></g><path fill="#cc4e00" d="M87 75C49 33 22-17 22-94c0-76 28-126 65-167h31c-38 41-64 92-64 168S80 34 118 75H87" id="T"/><path fill="#cc4e00" d="M30-248c87 1 191-15 191 75 0 78-77 80-158 76V0H30v-248zm33 125c57 0 124 11 124-50 0-59-68-47-124-48v98" id="U"/><path fill="#cc4e00" d="M212-179c-10-28-35-45-73-45-59 0-87 40-87 99 0 60 29 101 89 101 43 0 62-24 78-52l27 14C228-24 195 4 139 4 59 4 22-46 18-125c-6-104 99-153 187-111 19 9 31 26 39 46" id="V"/><path fill="#cc4e00" d="M33-261c38 41 65 92 65 168S71 34 33 75H2C39 34 66-17 66-93S39-220 2-261h31" id="W"/><g id="d"><use transform="matrix(0.03703703703703704,0,0,0.03703703703703704,0,0)" xlink:href="#T"/><use transform="matrix(0.03703703703703704,0,0,0.03703703703703704,4.407407407407408,0)" xlink:href="#G"/><use transform="matrix(0.03703703703703704,0,0,0.03703703703703704,13.296296296296298,0)" xlink:href="#U"/><use transform="matrix(0.03703703703703704,0,0,0.03703703703703704,22.185185185185187,0)" xlink:href="#V"/><use transform="matrix(0.03703703703703704,0,0,0.03703703703703704,31.77777777777778,0)" xlink:href="#W"/></g><path fill="#248814" d="M30-248c87 1 191-15 191 75 0 78-77 80-158 76V0H30v-248zm33 125c57 0 124 11 124-50 0-59-68-47-124-48v98" id="X"/><path fill="#248814" d="M84 4C-5 8 30-112 23-190h32v120c0 31 7 50 39 49 72-2 45-101 50-169h31l1 190h-30c-1-10 1-25-2-33-11 22-28 36-60 37" id="Y"/><path fill="#248814" d="M115-194c53 0 69 39 70 98 0 66-23 100-70 100C84 3 66-7 56-30L54 0H23l1-261h32v101c10-23 28-34 59-34zm-8 174c40 0 45-34 45-75 0-40-5-75-45-74-42 0-51 32-51 76 0 43 10 73 51 73" id="Z"/><path fill="#248814" d="M24 0v-261h32V0H24" id="aa"/><path fill="#248814" d="M24-231v-30h32v30H24zM24 0v-190h32V0H24" id="ab"/><path fill="#248814" d="M96-169c-40 0-48 33-48 73s9 75 48 75c24 0 41-14 43-38l32 2c-6 37-31 61-74 61-59 0-76-41-82-99-10-93 101-131 147-64 4 7 5 14 7 22l-32 3c-4-21-16-35-41-35" id="ac"/><g id="e"><use transform="matrix(0.04938271604938272,0,0,0.04938271604938272,0,0)" xlink:href="#X"/><use transform="matrix(0.04938271604938272,0,0,0.04938271604938272,11.851851851851853,0)" xlink:href="#Y"/><use transform="matrix(0.04938271604938272,0,0,0.04938271604938272,21.7283950617284,0)" xlink:href="#Z"/><use transform="matrix(0.04938271604938272,0,0,0.04938271604938272,31.60493827160494,0)" xlink:href="#aa"/><use transform="matrix(0.04938271604938272,0,0,0.04938271604938272,35.50617283950618,0)" xlink:href="#ab"/><use transform="matrix(0.04938271604938272,0,0,0.04938271604938272,39.40740740740741,0)" xlink:href="#ac"/></g><path fill="#248814" d="M185-189c-5-48-123-54-124 2 14 75 158 14 163 119 3 78-121 87-175 55-17-10-28-26-33-46l33-7c5 56 141 63 141-1 0-78-155-14-162-118-5-82 145-84 179-34 5 7 8 16 11 25" id="ad"/><path fill="#248814" d="M117-194c89-4 53 116 60 194h-32v-121c0-31-8-49-39-48C34-167 62-67 57 0H25l-1-190h30c1 10-1 24 2 32 11-22 29-35 61-36" id="ae"/><path fill="#248814" d="M100-194c63 0 86 42 84 106H49c0 40 14 67 53 68 26 1 43-12 49-29l28 8c-11 28-37 45-77 45C44 4 14-33 15-96c1-61 26-98 85-98zm52 81c6-60-76-77-97-28-3 7-6 17-6 28h103" id="af"/><path fill="#248814" d="M59-47c-2 24 18 29 38 22v24C64 9 27 4 27-40v-127H5v-23h24l9-43h21v43h35v23H59v120" id="ag"/><g id="f"><use transform="matrix(0.04938271604938272,0,0,0.04938271604938272,0,0)" xlink:href="#ad"/><use transform="matrix(0.04938271604938272,0,0,0.04938271604938272,11.851851851851853,0)" xlink:href="#Y"/><use transform="matrix(0.04938271604938272,0,0,0.04938271604938272,21.7283950617284,0)" xlink:href="#Z"/><use transform="matrix(0.04938271604938272,0,0,0.04938271604938272,31.60493827160494,0)" xlink:href="#ae"/><use transform="matrix(0.04938271604938272,0,0,0.04938271604938272,41.48148148148149,0)" xlink:href="#af"/><use transform="matrix(0.04938271604938272,0,0,0.04938271604938272,51.35802469135803,0)" xlink:href="#ag"/></g><path fill="#147eba" d="M30-248c87 1 191-15 191 75 0 78-77 80-158 76V0H30v-248zm33 125c57 0 124 11 124-50 0-59-68-47-124-48v98" id="ah"/><path fill="#147eba" d="M114-163C36-179 61-72 57 0H25l-1-190h30c1 12-1 29 2 39 6-27 23-49 58-41v29" id="ai"/><path fill="#147eba" d="M24-231v-30h32v30H24zM24 0v-190h32V0H24" id="aj"/><path fill="#147eba" d="M108 0H70L1-190h34L89-25l56-165h34" id="ak"/><path fill="#147eba" d="M141-36C126-15 110 5 73 4 37 3 15-17 15-53c-1-64 63-63 125-63 3-35-9-54-41-54-24 1-41 7-42 31l-33-3c5-37 33-52 76-52 45 0 72 20 72 64v82c-1 20 7 32 28 27v20c-31 9-61-2-59-35zM48-53c0 20 12 33 32 33 41-3 63-29 60-74-43 2-92-5-92 41" id="al"/><path fill="#147eba" d="M59-47c-2 24 18 29 38 22v24C64 9 27 4 27-40v-127H5v-23h24l9-43h21v43h35v23H59v120" id="am"/><path fill="#147eba" d="M100-194c63 0 86 42 84 106H49c0 40 14 67 53 68 26 1 43-12 49-29l28 8c-11 28-37 45-77 45C44 4 14-33 15-96c1-61 26-98 85-98zm52 81c6-60-76-77-97-28-3 7-6 17-6 28h103" id="an"/><g id="g"><use transform="matrix(0.04938271604938272,0,0,0.04938271604938272,0,0)" xlink:href="#ah"/><use transform="matrix(0.04938271604938272,0,0,0.04938271604938272,11.851851851851853,0)" xlink:href="#ai"/><use transform="matrix(0.04938271604938272,0,0,0.04938271604938272,17.728395061728396,0)" xlink:href="#aj"/><use transform="matrix(0.04938271604938272,0,0,0.04938271604938272,21.62962962962963,0)" xlink:href="#ak"/><use transform="matrix(0.04938271604938272,0,0,0.04938271604938272,30.518518518518523,0)" xlink:href="#al"/><use transform="matrix(0.04938271604938272,0,0,0.04938271604938272,40.39506172839506,0)" xlink:href="#am"/><use transform="matrix(0.04938271604938272,0,0,0.04938271604938272,45.333333333333336,0)" xlink:href="#an"/></g><path fill="#147eba" d="M185-189c-5-48-123-54-124 2 14 75 158 14 163 119 3 78-121 87-175 55-17-10-28-26-33-46l33-7c5 56 141 63 141-1 0-78-155-14-162-118-5-82 145-84 179-34 5 7 8 16 11 25" id="ao"/><path fill="#147eba" d="M84 4C-5 8 30-112 23-190h32v120c0 31 7 50 39 49 72-2 45-101 50-169h31l1 190h-30c-1-10 1-25-2-33-11 22-28 36-60 37" id="ap"/><path fill="#147eba" d="M115-194c53 0 69 39 70 98 0 66-23 100-70 100C84 3 66-7 56-30L54 0H23l1-261h32v101c10-23 28-34 59-34zm-8 174c40 0 45-34 45-75 0-40-5-75-45-74-42 0-51 32-51 76 0 43 10 73 51 73" id="aq"/><path fill="#147eba" d="M117-194c89-4 53 116 60 194h-32v-121c0-31-8-49-39-48C34-167 62-67 57 0H25l-1-190h30c1 10-1 24 2 32 11-22 29-35 61-36" id="ar"/><g id="h"><use transform="matrix(0.04938271604938272,0,0,0.04938271604938272,0,0)" xlink:href="#ao"/><use transform="matrix(0.04938271604938272,0,0,0.04938271604938272,11.851851851851853,0)" xlink:href="#ap"/><use transform="matrix(0.04938271604938272,0,0,0.04938271604938272,21.7283950617284,0)" xlink:href="#aq"/><use transform="matrix(0.04938271604938272,0,0,0.04938271604938272,31.60493827160494,0)" xlink:href="#ar"/><use transform="matrix(0.04938271604938272,0,0,0.04938271604938272,41.48148148148149,0)" xlink:href="#an"/><use transform="matrix(0.04938271604938272,0,0,0.04938271604938272,51.35802469135803,0)" xlink:href="#am"/></g><path fill="#147eba" d="M160-131c35 5 61 23 61 61C221 17 115-2 30 0v-248c76 3 177-17 177 60 0 33-19 50-47 57zm-97-11c50-1 110 9 110-42 0-47-63-36-110-37v79zm0 115c55-2 124 14 124-45 0-56-70-42-124-44v89" id="as"/><path fill="#147eba" d="M96-169c-40 0-48 33-48 73s9 75 48 75c24 0 41-14 43-38l32 2c-6 37-31 61-74 61-59 0-76-41-82-99-10-93 101-131 147-64 4 7 5 14 7 22l-32 3c-4-21-16-35-41-35" id="at"/><path fill="#147eba" d="M143 0L79-87 56-68V0H24v-261h32v163l83-92h37l-77 82L181 0h-38" id="au"/><path fill="#147eba" d="M85-194c31 0 48 13 60 33l-1-100h32l1 261h-30c-2-10 0-23-3-31C134-8 116 4 85 4 32 4 16-35 15-94c0-66 23-100 70-100zm9 24c-40 0-46 34-46 75 0 40 6 74 45 74 42 0 51-32 51-76 0-42-9-74-50-73" id="av"/><g id="i"><use transform="matrix(0.04938271604938272,0,0,0.04938271604938272,0,0)" xlink:href="#as"/><use transform="matrix(0.04938271604938272,0,0,0.04938271604938272,11.851851851851853,0)" xlink:href="#al"/><use transform="matrix(0.04938271604938272,0,0,0.04938271604938272,21.7283950617284,0)" xlink:href="#at"/><use transform="matrix(0.04938271604938272,0,0,0.04938271604938272,30.617283950617285,0)" xlink:href="#au"/><use transform="matrix(0.04938271604938272,0,0,0.04938271604938272,39.50617283950618,0)" xlink:href="#an"/><use transform="matrix(0.04938271604938272,0,0,0.04938271604938272,49.38271604938272,0)" xlink:href="#ar"/><use transform="matrix(0.04938271604938272,0,0,0.04938271604938272,59.25925925925927,0)" xlink:href="#av"/></g><path fill="#147eba" d="M87 75C49 33 22-17 22-94c0-76 28-126 65-167h31c-38 41-64 92-64 168S80 34 118 75H87" id="aw"/><path fill="#147eba" d="M177-190C167-65 218 103 67 71c-23-6-38-20-44-43l32-5c15 47 100 32 89-28v-30C133-14 115 1 83 1 29 1 15-40 15-95c0-56 16-97 71-98 29-1 48 16 59 35 1-10 0-23 2-32h30zM94-22c36 0 50-32 50-73 0-42-14-75-50-75-39 0-46 34-46 75s6 73 46 73" id="ax"/><path fill="#147eba" d="M100-194c62-1 85 37 85 99 1 63-27 99-86 99S16-35 15-95c0-66 28-99 85-99zM99-20c44 1 53-31 53-75 0-43-8-75-51-75s-53 32-53 75 10 74 51 75" id="ay"/><path fill="#147eba" d="M33-261c38 41 65 92 65 168S71 34 33 75H2C39 34 66-17 66-93S39-220 2-261h31" id="az"/><g id="j"><use transform="matrix(0.04938271604938272,0,0,0.04938271604938272,0,0)" xlink:href="#aw"/><use transform="matrix(0.04938271604938272,0,0,0.04938271604938272,5.8765432098765435,0)" xlink:href="#ax"/><use transform="matrix(0.04938271604938272,0,0,0.04938271604938272,15.753086419753087,0)" xlink:href="#ay"/><use transform="matrix(0.04938271604938272,0,0,0.04938271604938272,25.629629629629633,0)" xlink:href="#az"/></g><path fill="#147eba" d="M190 0L58-211 59 0H30v-248h39L202-35l-2-213h31V0h-41" id="aA"/><path fill="#147eba" d="M63-220v92h138v28H63V0H30v-248h175v28H63" id="aB"/><g id="k"><use transform="matrix(0.04938271604938272,0,0,0.04938271604938272,0,0)" xlink:href="#aA"/><use transform="matrix(0.04938271604938272,0,0,0.04938271604938272,12.790123456790125,0)" xlink:href="#aB"/><use transform="matrix(0.04938271604938272,0,0,0.04938271604938272,23.60493827160494,0)" xlink:href="#ao"/></g><path fill="#147eba" d="M30-248c118-7 216 8 213 122C240-48 200 0 122 0H30v-248zM63-27c89 8 146-16 146-99s-60-101-146-95v194" id="aC"/><g id="l"><use transform="matrix(0.04938271604938272,0,0,0.04938271604938272,0,0)" xlink:href="#aC"/><use transform="matrix(0.04938271604938272,0,0,0.04938271604938272,12.790123456790125,0)" xlink:href="#as"/></g><path fill="#147eba" d="M115-194c55 1 70 41 70 98S169 2 115 4C84 4 66-9 55-30l1 105H24l-1-265h31l2 30c10-21 28-34 59-34zm-8 174c40 0 45-34 45-75s-6-73-45-74c-42 0-51 32-51 76 0 43 10 73 51 73" id="aD"/><path fill="#147eba" d="M135-143c-3-34-86-38-87 0 15 53 115 12 119 90S17 21 10-45l28-5c4 36 97 45 98 0-10-56-113-15-118-90-4-57 82-63 122-42 12 7 21 19 24 35" id="aE"/><g id="m"><use transform="matrix(0.04938271604938272,0,0,0.04938271604938272,0,0)" xlink:href="#aw"/><use transform="matrix(0.04938271604938272,0,0,0.04938271604938272,5.8765432098765435,0)" xlink:href="#aD"/><use transform="matrix(0.04938271604938272,0,0,0.04938271604938272,15.753086419753087,0)" xlink:href="#ay"/><use transform="matrix(0.04938271604938272,0,0,0.04938271604938272,25.629629629629633,0)" xlink:href="#aE"/><use transform="matrix(0.04938271604938272,0,0,0.04938271604938272,34.51851851851852,0)" xlink:href="#am"/><use transform="matrix(0.04938271604938272,0,0,0.04938271604938272,39.45679012345679,0)" xlink:href="#ax"/><use transform="matrix(0.04938271604938272,0,0,0.04938271604938272,49.333333333333336,0)" xlink:href="#ai"/><use transform="matrix(0.04938271604938272,0,0,0.04938271604938272,55.20987654320988,0)" xlink:href="#an"/><use transform="matrix(0.04938271604938272,0,0,0.04938271604938272,65.08641975308643,0)" xlink:href="#aE"/><use transform="matrix(0.04938271604938272,0,0,0.04938271604938272,73.97530864197532,0)" xlink:href="#az"/></g><g id="n"><use transform="matrix(0.03703703703703704,0,0,0.03703703703703704,0,0)" xlink:href="#G"/><use transform="matrix(0.03703703703703704,0,0,0.03703703703703704,8.88888888888889,0)" xlink:href="#U"/><use transform="matrix(0.03703703703703704,0,0,0.03703703703703704,17.77777777777778,0)" xlink:href="#V"/></g><path fill="#cc4e00" d="M33 0v-248h34V0H33" id="aF"/><path fill="#cc4e00" d="M117-194c89-4 53 116 60 194h-32v-121c0-31-8-49-39-48C34-167 62-67 57 0H25l-1-190h30c1 10-1 24 2 32 11-22 29-35 61-36" id="aG"/><g id="o"><use transform="matrix(0.03703703703703704,0,0,0.03703703703703704,0,0)" xlink:href="#aF"/><use transform="matrix(0.03703703703703704,0,0,0.03703703703703704,3.703703703703704,0)" xlink:href="#aG"/><use transform="matrix(0.03703703703703704,0,0,0.03703703703703704,11.111111111111112,0)" xlink:href="#J"/><use transform="matrix(0.03703703703703704,0,0,0.03703703703703704,14.814814814814817,0)" xlink:href="#P"/><use transform="matrix(0.03703703703703704,0,0,0.03703703703703704,22.222222222222225,0)" xlink:href="#I"/><use transform="matrix(0.03703703703703704,0,0,0.03703703703703704,26.629629629629633,0)" xlink:href="#aG"/><use transform="matrix(0.03703703703703704,0,0,0.03703703703703704,34.03703703703704,0)" xlink:href="#P"/><use transform="matrix(0.03703703703703704,0,0,0.03703703703703704,41.44444444444444,0)" xlink:href="#J"/></g><path fill="#cc4e00" d="M143 4C61 4 22-44 18-125c-5-107 100-154 193-111 17 8 29 25 37 43l-32 9c-13-25-37-40-76-40-61 0-88 39-88 99 0 61 29 100 91 101 35 0 62-11 79-27v-45h-74v-28h105v86C228-13 192 4 143 4" id="aH"/><path fill="#cc4e00" d="M206 0h-36l-40-164L89 0H53L-1-190h32L70-26l43-164h34l41 164 42-164h31" id="aI"/><path fill="#cc4e00" d="M179-190L93 31C79 59 56 82 12 73V49c39 6 53-20 64-50L1-190h34L92-34l54-156h33" id="aJ"/><g id="p"><use transform="matrix(0.03703703703703704,0,0,0.03703703703703704,0,0)" xlink:href="#aH"/><use transform="matrix(0.03703703703703704,0,0,0.03703703703703704,10.370370370370372,0)" xlink:href="#L"/><use transform="matrix(0.03703703703703704,0,0,0.03703703703703704,17.77777777777778,0)" xlink:href="#J"/><use transform="matrix(0.03703703703703704,0,0,0.03703703703703704,21.48148148148148,0)" xlink:href="#P"/><use transform="matrix(0.03703703703703704,0,0,0.03703703703703704,28.88888888888889,0)" xlink:href="#aI"/><use transform="matrix(0.03703703703703704,0,0,0.03703703703703704,38.48148148148148,0)" xlink:href="#L"/><use transform="matrix(0.03703703703703704,0,0,0.03703703703703704,45.888888888888886,0)" xlink:href="#aJ"/></g><path fill="#cc4e00" d="M232-93c-1 65-40 97-104 97C67 4 28-28 28-90v-158h33c8 89-33 224 67 224 102 0 64-133 71-224h33v155" id="aK"/><path fill="#cc4e00" d="M135-143c-3-34-86-38-87 0 15 53 115 12 119 90S17 21 10-45l28-5c4 36 97 45 98 0-10-56-113-15-118-90-4-57 82-63 122-42 12 7 21 19 24 35" id="aL"/><g id="q"><use transform="matrix(0.03703703703703704,0,0,0.03703703703703704,0,0)" xlink:href="#aK"/><use transform="matrix(0.03703703703703704,0,0,0.03703703703703704,9.592592592592593,0)" xlink:href="#aL"/><use transform="matrix(0.03703703703703704,0,0,0.03703703703703704,16.25925925925926,0)" xlink:href="#P"/><use transform="matrix(0.03703703703703704,0,0,0.03703703703703704,23.66666666666667,0)" xlink:href="#I"/><use transform="matrix(0.03703703703703704,0,0,0.03703703703703704,28.074074074074076,0)" xlink:href="#aL"/></g><path fill="#cc4e00" d="M197 0v-115H63V0H30v-248h33v105h134v-105h34V0h-34" id="aM"/><path fill="#cc4e00" d="M127-220V0H93v-220H8v-28h204v28h-85" id="aN"/><g id="r"><use transform="matrix(0.03703703703703704,0,0,0.03703703703703704,0,0)" xlink:href="#aM"/><use transform="matrix(0.03703703703703704,0,0,0.03703703703703704,9.592592592592593,0)" xlink:href="#aN"/><use transform="matrix(0.03703703703703704,0,0,0.03703703703703704,17.703703703703706,0)" xlink:href="#aN"/><use transform="matrix(0.03703703703703704,0,0,0.03703703703703704,25.814814814814817,0)" xlink:href="#U"/></g><path fill="#cc4e00" d="M134-131c28 9 52 24 51 62-1 50-34 73-85 73S17-19 16-69c0-36 21-54 49-61-75-25-45-126 34-121 46 3 78 18 79 63 0 33-17 51-44 57zm-34-11c31 1 46-15 46-44 0-28-17-43-47-42-29 0-46 13-45 42 1 28 16 44 46 44zm1 122c35 0 51-18 51-52 0-30-18-46-53-46-33 0-51 17-51 47 0 34 19 51 53 51" id="aO"/><path fill="#cc4e00" d="M101-251c68 0 85 55 85 127S166 4 100 4C33 4 14-52 14-124c0-73 17-127 87-127zm-1 229c47 0 54-49 54-102s-4-102-53-102c-51 0-55 48-55 102 0 53 5 102 54 102" id="aP"/><g id="s"><use transform="matrix(0.03703703703703704,0,0,0.03703703703703704,0,0)" xlink:href="#aO"/><use transform="matrix(0.03703703703703704,0,0,0.03703703703703704,7.407407407407408,0)" xlink:href="#aP"/><use transform="matrix(0.03703703703703704,0,0,0.03703703703703704,14.814814814814817,0)" xlink:href="#aO"/><use transform="matrix(0.03703703703703704,0,0,0.03703703703703704,22.222222222222225,0)" xlink:href="#aP"/></g><path fill="#147eba" d="M127-220V0H93v-220H8v-28h204v28h-85" id="aQ"/><path fill="#147eba" d="M212-179c-10-28-35-45-73-45-59 0-87 40-87 99 0 60 29 101 89 101 43 0 62-24 78-52l27 14C228-24 195 4 139 4 59 4 22-46 18-125c-6-104 99-153 187-111 19 9 31 26 39 46" id="aR"/><g id="t"><use transform="matrix(0.03703703703703704,0,0,0.03703703703703704,0,0)" xlink:href="#aQ"/><use transform="matrix(0.03703703703703704,0,0,0.03703703703703704,8.111111111111112,0)" xlink:href="#aR"/><use transform="matrix(0.03703703703703704,0,0,0.03703703703703704,17.703703703703706,0)" xlink:href="#ah"/></g><path fill="#147eba" d="M134-131c28 9 52 24 51 62-1 50-34 73-85 73S17-19 16-69c0-36 21-54 49-61-75-25-45-126 34-121 46 3 78 18 79 63 0 33-17 51-44 57zm-34-11c31 1 46-15 46-44 0-28-17-43-47-42-29 0-46 13-45 42 1 28 16 44 46 44zm1 122c35 0 51-18 51-52 0-30-18-46-53-46-33 0-51 17-51 47 0 34 19 51 53 51" id="aS"/><path fill="#147eba" d="M101-251c68 0 85 55 85 127S166 4 100 4C33 4 14-52 14-124c0-73 17-127 87-127zm-1 229c47 0 54-49 54-102s-4-102-53-102c-51 0-55 48-55 102 0 53 5 102 54 102" id="aT"/><g id="u"><use transform="matrix(0.03703703703703704,0,0,0.03703703703703704,0,0)" xlink:href="#aS"/><use transform="matrix(0.03703703703703704,0,0,0.03703703703703704,7.407407407407408,0)" xlink:href="#aT"/><use transform="matrix(0.03703703703703704,0,0,0.03703703703703704,14.814814814814817,0)" xlink:href="#aS"/><use transform="matrix(0.03703703703703704,0,0,0.03703703703703704,22.222222222222225,0)" xlink:href="#aT"/></g><path fill="#147eba" d="M110-160c48 1 74 30 74 79 0 53-28 85-80 85-65 0-83-55-86-122-5-90 50-162 133-122 14 7 22 21 27 39l-31 6c-5-40-67-38-82-6-9 19-15 44-15 74 11-20 30-34 60-33zm-7 138c34 0 49-23 49-58s-16-56-50-56c-29 0-50 16-49 49 1 36 15 65 50 65" id="aU"/><path fill="#147eba" d="M126-127c33 6 58 20 58 59 0 88-139 92-164 29-3-8-5-16-6-25l32-3c6 27 21 44 54 44 32 0 52-15 52-46 0-38-36-46-79-43v-28c39 1 72-4 72-42 0-27-17-43-46-43-28 0-47 15-49 41l-32-3c6-42 35-63 81-64 48-1 79 21 79 65 0 36-21 52-52 59" id="aV"/><path fill="#147eba" d="M64 0c3-98 48-159 88-221H18v-27h164v26C143-157 98-101 97 0H64" id="aW"/><path fill="#147eba" d="M99-251c64 0 84 50 84 122C183-37 130 33 47-8c-14-7-20-23-25-40l30-5c6 39 69 39 84 7 9-19 16-44 16-74-10 22-31 35-62 35-49 0-73-33-73-83 0-54 28-83 82-83zm-1 141c31-1 51-18 51-49 0-36-14-67-51-67-34 0-49 23-49 58 0 34 15 58 49 58" id="aX"/><g id="v"><use transform="matrix(0.03703703703703704,0,0,0.03703703703703704,0,0)" xlink:href="#aU"/><use transform="matrix(0.03703703703703704,0,0,0.03703703703703704,7.407407407407408,0)" xlink:href="#aV"/><use transform="matrix(0.03703703703703704,0,0,0.03703703703703704,14.814814814814817,0)" xlink:href="#aW"/><use transform="matrix(0.03703703703703704,0,0,0.03703703703703704,22.222222222222225,0)" xlink:href="#aX"/></g><path fill="#147eba" d="M101-251c82-7 93 87 43 132L82-64C71-53 59-42 53-27h129V0H18c2-99 128-94 128-182 0-28-16-43-45-43s-46 15-49 41l-32-3c6-41 34-60 81-64" id="aY"/><path fill="#147eba" d="M155-56V0h-30v-56H8v-25l114-167h33v167h35v25h-35zm-30-156c-27 46-58 90-88 131h88v-131" id="aZ"/><g id="w"><use transform="matrix(0.03703703703703704,0,0,0.03703703703703704,0,0)" xlink:href="#aY"/><use transform="matrix(0.03703703703703704,0,0,0.03703703703703704,7.407407407407408,0)" xlink:href="#aT"/><use transform="matrix(0.03703703703703704,0,0,0.03703703703703704,14.814814814814817,0)" xlink:href="#aZ"/><use transform="matrix(0.03703703703703704,0,0,0.03703703703703704,22.222222222222225,0)" xlink:href="#aX"/></g><path fill="#147eba" d="M266 0h-40l-56-210L115 0H75L2-248h35L96-30l15-64 43-154h32l59 218 59-218h35" id="ba"/><g id="x"><use transform="matrix(0.04938271604938272,0,0,0.04938271604938272,0,0)" xlink:href="#ba"/><use transform="matrix(0.04938271604938272,0,0,0.04938271604938272,16.39506172839506,0)" xlink:href="#ay"/><use transform="matrix(0.04938271604938272,0,0,0.04938271604938272,26.271604938271608,0)" xlink:href="#ai"/><use transform="matrix(0.04938271604938272,0,0,0.04938271604938272,32.148148148148145,0)" xlink:href="#au"/><use transform="matrix(0.04938271604938272,0,0,0.04938271604938272,41.03703703703704,0)" xlink:href="#an"/><use transform="matrix(0.04938271604938272,0,0,0.04938271604938272,50.91358024691358,0)" xlink:href="#ai"/></g><path fill="#147eba" d="M233-177c-1 41-23 64-60 70L243 0h-38l-65-103H63V0H30v-248c88 3 205-21 203 71zM63-129c60-2 137 13 137-47 0-61-80-42-137-45v92" id="bb"/><g id="y"><use transform="matrix(0.04938271604938272,0,0,0.04938271604938272,0,0)" xlink:href="#bb"/><use transform="matrix(0.04938271604938272,0,0,0.04938271604938272,12.790123456790125,0)" xlink:href="#an"/><use transform="matrix(0.04938271604938272,0,0,0.04938271604938272,22.66666666666667,0)" xlink:href="#av"/><use transform="matrix(0.04938271604938272,0,0,0.04938271604938272,32.543209876543216,0)" xlink:href="#aj"/><use transform="matrix(0.04938271604938272,0,0,0.04938271604938272,36.44444444444445,0)" xlink:href="#aE"/></g><path fill="#248814" d="M63-220v92h138v28H63V0H30v-248h175v28H63" id="bc"/><path fill="#248814" d="M114-163C36-179 61-72 57 0H25l-1-190h30c1 12-1 29 2 39 6-27 23-49 58-41v29" id="bd"/><path fill="#248814" d="M100-194c62-1 85 37 85 99 1 63-27 99-86 99S16-35 15-95c0-66 28-99 85-99zM99-20c44 1 53-31 53-75 0-43-8-75-51-75s-53 32-53 75 10 74 51 75" id="be"/><path fill="#248814" d="M85-194c31 0 48 13 60 33l-1-100h32l1 261h-30c-2-10 0-23-3-31C134-8 116 4 85 4 32 4 16-35 15-94c0-66 23-100 70-100zm9 24c-40 0-46 34-46 75 0 40 6 74 45 74 42 0 51-32 51-76 0-42-9-74-50-73" id="bf"/><g id="z"><use transform="matrix(0.03703703703703704,0,0,0.03703703703703704,0,0)" xlink:href="#bc"/><use transform="matrix(0.03703703703703704,0,0,0.03703703703703704,8.111111111111112,0)" xlink:href="#bd"/><use transform="matrix(0.03703703703703704,0,0,0.03703703703703704,12.51851851851852,0)" xlink:href="#be"/><use transform="matrix(0.03703703703703704,0,0,0.03703703703703704,19.925925925925934,0)" xlink:href="#ae"/><use transform="matrix(0.03703703703703704,0,0,0.03703703703703704,27.333333333333343,0)" xlink:href="#ag"/><use transform="matrix(0.03703703703703704,0,0,0.03703703703703704,31.037037037037045,0)" xlink:href="#af"/><use transform="matrix(0.03703703703703704,0,0,0.03703703703703704,38.44444444444446,0)" xlink:href="#ae"/><use transform="matrix(0.03703703703703704,0,0,0.03703703703703704,45.851851851851855,0)" xlink:href="#bf"/></g><path fill="#248814" d="M87 75C49 33 22-17 22-94c0-76 28-126 65-167h31c-38 41-64 92-64 168S80 34 118 75H87" id="bg"/><path fill="#248814" d="M233-177c-1 41-23 64-60 70L243 0h-38l-65-103H63V0H30v-248c88 3 205-21 203 71zM63-129c60-2 137 13 137-47 0-61-80-42-137-45v92" id="bh"/><path fill="#248814" d="M141-36C126-15 110 5 73 4 37 3 15-17 15-53c-1-64 63-63 125-63 3-35-9-54-41-54-24 1-41 7-42 31l-33-3c5-37 33-52 76-52 45 0 72 20 72 64v82c-1 20 7 32 28 27v20c-31 9-61-2-59-35zM48-53c0 20 12 33 32 33 41-3 63-29 60-74-43 2-92-5-92 41" id="bi"/><path fill="#248814" d="M33-261c38 41 65 92 65 168S71 34 33 75H2C39 34 66-17 66-93S39-220 2-261h31" id="bj"/><g id="A"><use transform="matrix(0.03703703703703704,0,0,0.03703703703703704,0,0)" xlink:href="#bg"/><use transform="matrix(0.03703703703703704,0,0,0.03703703703703704,4.407407407407408,0)" xlink:href="#bh"/><use transform="matrix(0.03703703703703704,0,0,0.03703703703703704,14.000000000000002,0)" xlink:href="#af"/><use transform="matrix(0.03703703703703704,0,0,0.03703703703703704,21.407407407407412,0)" xlink:href="#bi"/><use transform="matrix(0.03703703703703704,0,0,0.03703703703703704,28.81481481481482,0)" xlink:href="#ac"/><use transform="matrix(0.03703703703703704,0,0,0.03703703703703704,35.48148148148149,0)" xlink:href="#ag"/><use transform="matrix(0.03703703703703704,0,0,0.03703703703703704,39.18518518518519,0)" xlink:href="#bj"/></g><path fill="#248814" d="M33-154v-36h34v36H33zM33 0v-36h34V0H33" id="bk"/><path fill="#248814" d="M134-131c28 9 52 24 51 62-1 50-34 73-85 73S17-19 16-69c0-36 21-54 49-61-75-25-45-126 34-121 46 3 78 18 79 63 0 33-17 51-44 57zm-34-11c31 1 46-15 46-44 0-28-17-43-47-42-29 0-46 13-45 42 1 28 16 44 46 44zm1 122c35 0 51-18 51-52 0-30-18-46-53-46-33 0-51 17-51 47 0 34 19 51 53 51" id="bl"/><path fill="#248814" d="M101-251c68 0 85 55 85 127S166 4 100 4C33 4 14-52 14-124c0-73 17-127 87-127zm-1 229c47 0 54-49 54-102s-4-102-53-102c-51 0-55 48-55 102 0 53 5 102 54 102" id="bm"/><g id="B"><use transform="matrix(0.03703703703703704,0,0,0.03703703703703704,0,0)" xlink:href="#bk"/><use transform="matrix(0.03703703703703704,0,0,0.03703703703703704,3.703703703703704,0)" xlink:href="#bl"/><use transform="matrix(0.03703703703703704,0,0,0.03703703703703704,11.111111111111112,0)" xlink:href="#bm"/></g><path fill="#248814" d="M140-251c81 0 123 46 123 126C263-53 228-8 163 1c7 30 30 48 69 40v23c-55 16-95-15-103-61C56-3 17-48 17-125c0-80 42-126 123-126zm0 227c63 0 89-41 89-101s-29-99-89-99c-61 0-89 39-89 99S79-25 140-24" id="bn"/><g id="C"><use transform="matrix(0.03703703703703704,0,0,0.03703703703703704,0,0)" xlink:href="#ad"/><use transform="matrix(0.03703703703703704,0,0,0.03703703703703704,8.88888888888889,0)" xlink:href="#be"/><use transform="matrix(0.03703703703703704,0,0,0.03703703703703704,16.296296296296298,0)" xlink:href="#ae"/><use transform="matrix(0.03703703703703704,0,0,0.03703703703703704,23.703703703703706,0)" xlink:href="#bi"/><use transform="matrix(0.03703703703703704,0,0,0.03703703703703704,31.111111111111114,0)" xlink:href="#bd"/><use transform="matrix(0.03703703703703704,0,0,0.03703703703703704,35.51851851851852,0)" xlink:href="#bn"/><use transform="matrix(0.03703703703703704,0,0,0.03703703703703704,45.88888888888889,0)" xlink:href="#Y"/><use transform="matrix(0.03703703703703704,0,0,0.03703703703703704,53.296296296296305,0)" xlink:href="#Z"/><use transform="matrix(0.03703703703703704,0,0,0.03703703703703704,60.70370370370371,0)" xlink:href="#af"/></g><path fill="#248814" d="M99-251c64 0 84 50 84 122C183-37 130 33 47-8c-14-7-20-23-25-40l30-5c6 39 69 39 84 7 9-19 16-44 16-74-10 22-31 35-62 35-49 0-73-33-73-83 0-54 28-83 82-83zm-1 141c31-1 51-18 51-49 0-36-14-67-51-67-34 0-49 23-49 58 0 34 15 58 49 58" id="bo"/><g id="D"><use transform="matrix(0.03703703703703704,0,0,0.03703703703703704,0,0)" xlink:href="#bk"/><use transform="matrix(0.03703703703703704,0,0,0.03703703703703704,3.703703703703704,0)" xlink:href="#bo"/><use transform="matrix(0.03703703703703704,0,0,0.03703703703703704,11.111111111111112,0)" xlink:href="#bm"/><use transform="matrix(0.03703703703703704,0,0,0.03703703703703704,18.51851851851852,0)" xlink:href="#bm"/><use transform="matrix(0.03703703703703704,0,0,0.03703703703703704,25.92592592592593,0)" xlink:href="#bm"/></g><path fill="#248814" d="M205 0l-28-72H64L36 0H1l101-248h38L239 0h-34zm-38-99l-47-123c-12 45-31 82-46 123h93" id="bp"/><path fill="#248814" d="M135-143c-3-34-86-38-87 0 15 53 115 12 119 90S17 21 10-45l28-5c4 36 97 45 98 0-10-56-113-15-118-90-4-57 82-63 122-42 12 7 21 19 24 35" id="bq"/><path fill="#248814" d="M179-190L93 31C79 59 56 82 12 73V49c39 6 53-20 64-50L1-190h34L92-34l54-156h33" id="br"/><path fill="#248814" d="M145-31C134-9 116 4 85 4 32 4 16-35 15-94c0-59 17-99 70-100 32-1 48 14 60 33 0-11-1-24 2-32h30l-1 268h-32zM93-21c41 0 51-33 51-76s-8-73-50-73c-40 0-46 35-46 75s5 74 45 74" id="bs"/><path fill="#248814" d="M210-169c-67 3-38 105-44 169h-31v-121c0-29-5-50-35-48C34-165 62-65 56 0H25l-1-190h30c1 10-1 24 2 32 10-44 99-50 107 0 11-21 27-35 58-36 85-2 47 119 55 194h-31v-121c0-29-5-49-35-48" id="bt"/><g id="E"><use transform="matrix(0.03703703703703704,0,0,0.03703703703703704,0,0)" xlink:href="#bp"/><use transform="matrix(0.03703703703703704,0,0,0.03703703703703704,8.88888888888889,0)" xlink:href="#bq"/><use transform="matrix(0.03703703703703704,0,0,0.03703703703703704,15.555555555555557,0)" xlink:href="#br"/><use transform="matrix(0.03703703703703704,0,0,0.03703703703703704,22.222222222222225,0)" xlink:href="#ae"/><use transform="matrix(0.03703703703703704,0,0,0.03703703703703704,29.629629629629633,0)" xlink:href="#bs"/><use transform="matrix(0.03703703703703704,0,0,0.03703703703703704,37.03703703703704,0)" xlink:href="#bt"/><use transform="matrix(0.03703703703703704,0,0,0.03703703703703704,48.111111111111114,0)" xlink:href="#be"/><use transform="matrix(0.03703703703703704,0,0,0.03703703703703704,55.51851851851852,0)" xlink:href="#ae"/></g><path fill="#248814" d="M27 0v-27h64v-190l-56 39v-29l58-41h29v221h61V0H27" id="bu"/><g id="F"><use transform="matrix(0.03703703703703704,0,0,0.03703703703703704,0,0)" xlink:href="#bk"/><use transform="matrix(0.03703703703703704,0,0,0.03703703703703704,3.703703703703704,0)" xlink:href="#bl"/><use transform="matrix(0.03703703703703704,0,0,0.03703703703703704,11.111111111111112,0)" xlink:href="#bm"/><use transform="matrix(0.03703703703703704,0,0,0.03703703703703704,18.51851851851852,0)" xlink:href="#bl"/><use transform="matrix(0.03703703703703704,0,0,0.03703703703703704,25.92592592592593,0)" xlink:href="#bu"/></g></defs></g></svg>