<svg xmlns="http://www.w3.org/2000/svg" xmlns:xlink="http://www.w3.org/1999/xlink" xmlns:lucid="lucid" width="850.12" height="1231.7"><g transform="translate(-510.3731546205725 -32.40647631478784)" lucid:page-tab-id="0_0"><path d="M511.87 246.13a6 6 0 0 1 6-6H1353a6 6 0 0 1 6 6V1256.6a6 6 0 0 1-6 6H517.86a6 6 0 0 1-6-6z" stroke="#8c4fff" stroke-width="3" fill="#fff" fill-opacity="0"/><path d="M511.87 240.13h56v56h-56v-56z" stroke="#fff" stroke-opacity="0" fill="#8c4fff"/><path d="M555.24 269.58l-4.12-1.76v14.68c3.57-.48 4.12-4.16 4.12-4.3v-8.62zm-5.53 12.95v-14.7l-4.22 1.75v8.7c0 .06.63 3.85 4.23 4.25zm.44-16.44c.2-.1.4-.1.55.02l5.52 2.36c.27.1.43.37.43.62v9.16c-.23 2.03-1.88 5.7-6.35 5.7-4.3 0-5.96-3.67-6.23-5.58v-9.28c0-.25.2-.5.43-.62l5.64-2.4zm7.92.9l-7.64-3.38-7.76 3.28v9.97c0 .07-.04 4 2.35 6.47 1.26 1.33 3.07 2 5.3 2 2.27 0 4.04-.67 5.37-2 2.43-2.46 2.4-6.44 2.4-6.47V267zm-1.4 17.3c-1.58 1.62-3.7 2.43-6.36 2.43-2.63 0-4.74-.8-6.3-2.43-2.83-2.87-2.72-7.3-2.72-7.47v-10.4c0-.3.16-.56.44-.64l8.42-3.58c.2-.07.4-.07.55 0l8.34 3.68c.28.1.43.37.43.63v10.34c0 .18.04 4.56-2.82 7.43zm-29.4-10.23h11.2v1.4h-11.2c-3.93 0-6.75-2.83-7-7.03v-.5c0-3.55 1.86-5.94 5.34-7l-.03-.9c0-4.07 2.23-7.64 5.64-9.04 4.64-1.87 9.85-1.25 12.75 1.55 1.06 1.03 1.88 2.17 2.47 3.5.86-.63 1.96-.93 3.3-.85 2.5.1 4.42 2.4 4.8 5.6 2.1.17 3.5 1.24 4.2 3.23l-1.3.48c-.57-1.6-1.67-2.35-3.55-2.35-.36 0-.67-.26-.67-.66-.2-3.25-2-4.83-3.57-4.9-1.33-.08-2.3.3-2.9 1.1-.15.18-.4.3-.66.26-.24-.04-.47-.22-.55-.45-.6-1.53-1.4-2.82-2.55-3.92-2.5-2.43-7.13-2.95-11.25-1.25-2.86 1.17-4.74 4.2-4.74 7.72 0 .37.04.96.07 1.33.04.37-.15.7-.5.77-3.22.8-4.87 2.72-4.87 5.78v.4c.2 3.5 2.4 5.74 5.57 5.74z" stroke="#fff" stroke-opacity="0" fill="#fff"/><use xlink:href="#a" transform="matrix(1,0,0,1,582.8731546205724,260.134935816181) translate(310.27777777777777 10.666666666666668)"/><use xlink:href="#b" transform="matrix(1,0,0,1,582.8731546205724,260.134935816181) translate(351.3888888888889 10.666666666666668)"/><use xlink:href="#c" transform="matrix(1,0,0,1,582.8731546205724,260.134935816181) translate(395.01851851851853 10.666666666666668)"/><use xlink:href="#d" transform="matrix(1,0,0,1,582.8731546205724,260.134935816181) translate(430.53703703703707 10.666666666666668)"/><path d="M740.54 500.7a6 6 0 0 1 6-6h475.12a6 6 0 0 1 6 6V715a6 6 0 0 1-6 6H746.54a6 6 0 0 1-6-6z" fill="#248814" fill-opacity=".13"/><path d="M740.54 494.7h56v56h-56v-56z" stroke="#fff" stroke-opacity="0" fill="#248814"/><path d="M783.92 516.88c-.16-.17-.34-.25-.56-.25h-5.15v-5.58c-.02-2.54-.96-4.7-2.83-6.4-1.9-1.83-4.15-2.75-6.77-2.75-2.65 0-4.9.83-6.8 2.62-1.9 1.7-2.87 3.87-2.9 6.4v5.66h-5.15c-.25 0-.44.1-.6.25-.15.17-.2.34-.2.6v25.28c0 .42.33.8.8.8h29.58c.46 0 .8-.38.8-.8v-25.28c0-.2-.05-.38-.2-.54zm-23.46-5.9c.03-2.13.8-3.88 2.37-5.3 1.62-1.5 3.52-2.2 5.74-2.2 2.2 0 4.12.75 5.7 2.25 1.54 1.4 2.32 3.2 2.32 5.32v5.58H760.4zm22.1 30.94h-28.03v-23.7h28.02z" stroke="#fff" stroke-opacity="0" fill="#fff"/><path d="M767.73 532v6.25h1.6v-6.23c2.13-.4 3.63-2.2 3.64-4.35 0-2.43-1.98-4.4-4.42-4.43-2.2-.03-4.05 1.5-4.42 3.68-.4 2.4 1.2 4.68 3.6 5.1zm.82-7.15c.8 0 1.45.27 2 .82.55.56.83 1.22.82 2 0 1.55-1.22 2.8-2.75 2.82h-.07c-1.55.1-2.92-1.06-3.03-2.62-.12-1.56 1.05-2.93 2.6-3.03.16-.02.28-.02.43 0z" stroke="#fff" stroke-opacity="0" fill="#fff"/><use xlink:href="#e" transform="matrix(1,0,0,1,811.5366851274661,514.6996330772603) translate(153.73456790123456 14.222222222222223)"/><use xlink:href="#f" transform="matrix(1,0,0,1,811.5366851274661,514.6996330772603) translate(206.96913580246914 14.222222222222223)"/><path d="M740.54 773.48a6 6 0 0 1 6-6h475.12a6 6 0 0 1 6 6v456.5a6 6 0 0 1-6 6H746.54a6 6 0 0 1-6-6z" fill="#147eba" fill-opacity=".13"/><path d="M740.54 767.48h56v56h-56v-56z" stroke="#fff" stroke-opacity="0" fill="#147eba"/><path d="M783.92 789.66c-.16-.17-.34-.25-.56-.25h-5.15v-5.56c-.02-2.54-.96-4.7-2.83-6.4-1.9-1.84-4.15-2.76-6.77-2.76-2.65 0-4.9.84-6.8 2.63-1.9 1.7-2.87 3.87-2.9 6.4v5.67h-5.15c-.25 0-.44.08-.6.25-.15.16-.2.33-.2.58v25.3c0 .4.33.78.8.78h29.58c.46 0 .8-.37.8-.8V790.2c0-.2-.05-.37-.2-.54zm-23.46-5.9c.03-2.13.8-3.88 2.37-5.3 1.62-1.5 3.52-2.2 5.74-2.2 2.2 0 4.12.75 5.7 2.25 1.54 1.43 2.32 3.22 2.32 5.34v5.57H760.4zm22.1 30.94h-28.03V791h28.02z" stroke="#fff" stroke-opacity="0" fill="#fff"/><path d="M767.73 804.8v6.24h1.6v-6.23c2.13-.38 3.63-2.18 3.64-4.34 0-2.44-1.98-4.42-4.42-4.43-2.2-.03-4.05 1.5-4.42 3.68-.4 2.4 1.2 4.7 3.6 5.1zm.82-7.17c.8 0 1.45.27 2 .83.55.55.83 1.2.82 2 0 1.54-1.22 2.8-2.75 2.82h-.07c-1.55.12-2.92-1.05-3.03-2.62-.12-1.55 1.05-2.92 2.6-3.03h.43z" stroke="#fff" stroke-opacity="0" fill="#fff"/><use xlink:href="#g" transform="matrix(1,0,0,1,811.5366851274656,787.4844106034795) translate(150.27777777777777 14.222222222222223)"/><use xlink:href="#h" transform="matrix(1,0,0,1,811.5366851274656,787.4844106034795) translate(210.42592592592592 14.222222222222223)"/><path d="M810.14 794.33h149.33v187.35H810.14z" fill="#fff" fill-opacity="0"/><path d="M828.8 794.33h12.45m12.44 0h12.44m12.44 0h12.45m12.44 0h12.44m12.46 0h12.44m12.45 0h6.22v5.85m0 11.7v11.72m0 11.7v11.72m0 11.7v11.72m0 11.7v11.72m0 11.7v11.72m0 11.7v11.72m0 11.7v11.72m0 11.7v5.86h-6.22m-12.45 0h-12.44m-12.45 0h-12.43m-12.44 0h-12.45m-12.44 0H853.7m-12.45 0H828.8m-12.44 0h-6.22v-5.85m0-11.7V952.4m0-11.7V929m0-11.72v-11.7m0-11.72v-11.7m0-11.72v-11.7m0-11.72v-11.7m0-11.72v-11.7m0-11.72v-5.85h6.22" stroke="#ed7100" stroke-width="3" fill="none"/><path d="M856.8 794.33h56v56h-56v-56z" stroke="#fff" stroke-opacity="0" fill="#ed7100"/><path d="M876.48 818.06l-1.13 1.13 2.33 2.33H864.8v1.6h12.88l-2.33 2.34 1.13 1.13 4.27-4.27-4.27-4.27zM904.8 821.53h-12.87l2.33-2.34-1.13-1.14-4.28 4.27 4.28 4.27 1.13-1.13-2.33-2.34h12.87v-1.6zM884 804.96v12.87h1.6v-12.87l2.34 2.33 1.13-1.14-4.27-4.28-4.27 4.28 1.14 1.13 2.33-2.34zM885.6 839.7v-12.87H884v12.87l-2.33-2.33-1.14 1.13 4.27 4.28 4.28-4.28-1.14-1.13-2.33 2.33z" stroke="#fff" stroke-opacity="0" fill="#fff"/><path d="M1034.93 948.35h120v120h-120v-120z" stroke="#000" stroke-opacity="0" fill="#ed7100"/><path d="M1075.44 1027.84h37.47v-37.46h-37.46v37.46zm40.5-37.46h5.96v2.94h-5.97v6.04h5.97v3.03h-5.97v4.44h5.97v3.02h-5.97v5.97h5.97v3.02h-5.97v5.97h5.97v3.02h-5.97v.25c0 1.5-1.26 2.76-2.77 2.76h-.25v5.97h-2.93v-5.97h-6.05v5.97h-3.02v-5.97h-4.46v5.97h-3.02v-5.97h-5.96v5.97h-3.03v-5.97h-5.96v5.97h-3.03v-5.97h-.25c-1.52 0-2.78-1.26-2.78-2.77v-.26h-4.45v-3.02h4.45v-5.97h-4.45v-3.02h4.45v-5.97h-4.45v-3.02h4.45v-4.45h-4.45v-3.04h4.45v-6.04h-4.45v-2.95h4.45v-.25c0-1.5 1.26-2.77 2.77-2.77h.24v-5.96h3.03v5.95h5.96v-5.96h3.03v5.95h5.96v-5.96h3.02v5.95h4.46v-5.96h3.02v5.95h6.05v-5.96h2.94v5.95h.26c1.5 0 2.77 1.26 2.77 2.77v.25zm-19.5 56.78c0 .08-.08.17-.16.17h-40.15c-.1 0-.17-.1-.17-.17V1007c0-.08.08-.16.16-.16h8.83v-3.02h-8.83c-1.76 0-3.2 1.42-3.2 3.2v40.14c0 1.76 1.44 3.2 3.2 3.2h40.16c1.76 0 3.2-1.44 3.2-3.2v-7.3h-3.04v7.3zm40.5-77.62v40.16c0 1.76-1.43 3.2-3.2 3.2h-8.82v-3.04h8.82c.1 0 .17-.08.17-.16v-40.16c0-.08-.08-.16-.16-.16h-40.15c-.1 0-.18.08-.18.16v8.82h-3.02v-8.82c0-1.76 1.42-3.2 3.2-3.2h40.14c1.77 0 3.2 1.44 3.2 3.2z" stroke="#000" stroke-opacity="0" fill="#fff"/><path d="M824.8 1087.02h120v120h-120v-120z" stroke="#000" stroke-opacity="0" fill="#c925d1"/><path d="M847.93 1108.04l13.94 13.95-2.1 2.1-13.94-13.96v11.34h-3.03v-14.95c0-.84.68-1.5 1.52-1.5h14.95v3h-11.34zm78.87-1.5v14.94h-3.02v-11.34l-13.94 13.95-2.1-2.1 13.94-13.96h-11.34v-3.02h14.95c.83 0 1.5.67 1.5 1.5zm-3.02 66h3.02v14.97c0 .85-.67 1.52-1.5 1.52h-14.96V1186h11.34l-13.94-13.95 2.1-2.1 13.94 13.94v-11.35zm-.76-26.7c0-4.95-5.7-9.9-15.37-13.2l1-2.84c11 3.78 17.4 9.66 17.4 16.04 0 6.4-6.4 12.27-17.4 15.96l-1-2.77c9.66-3.28 15.37-8.23 15.37-13.2zm-76.35 0c0 4.8 5.37 9.58 14.36 12.77l-1 2.87c-10.42-3.78-16.4-9.4-16.4-15.63 0-6.2 5.98-11.84 16.4-15.62l1 2.77c-9 3.27-14.36 8.05-14.36 12.84zm15.2 26.2L847.93 1186h11.34v3.02h-14.95c-.85 0-1.52-.67-1.52-1.5v-14.97h3.03v11.34l13.94-13.95 2.1 2.1zm22.93-38.13c-10.75 0-16.46-2.76-16.46-3.85 0-1.18 5.7-3.86 16.46-3.86 10.75 0 16.47 2.67 16.47 3.85 0 1.1-5.72 3.86-16.47 3.86zm.1 11.7c-10.35 0-16.56-2.87-16.56-4.38v-7.3c3.7 2.1 10.25 3.02 16.46 3.02 6.22 0 12.77-.93 16.47-3.03v7.32c0 1.5-6.22 4.37-16.38 4.37zm0 11.4c-10.35 0-16.56-2.76-16.56-4.27v-7.4c3.6 2.1 10.08 3.2 16.55 3.2 6.37 0 12.75-1.1 16.37-3.2v7.4c0 1.5-6.22 4.28-16.38 4.28zm-.1 10.26c-10.66 0-16.46-2.85-16.46-4.28v-6.22c3.6 2.2 10.08 3.28 16.55 3.28 6.37 0 12.75-1.1 16.37-3.28v6.22c0 1.43-5.8 4.28-16.47 4.28zm0-44.1c-9.4 0-19.48 2.2-19.48 6.9v32.92c0 4.8 9.82 7.3 19.48 7.3s19.5-2.5 19.5-7.3v-32.93c0-4.7-10.1-6.9-19.5-6.9z" stroke="#000" stroke-opacity="0" fill="#fff"/><use xlink:href="#i" transform="matrix(1,0,0,1,794.8033517941327,1216.0178777120466) translate(35.28395061728394 14.222222222222223)"/><use xlink:href="#j" transform="matrix(1,0,0,1,794.8033517941327,1216.0178777120466) translate(64.86419753086419 14.222222222222223)"/><path d="M935.43 296.44c33.12 0 60 26.88 60 60 0 33.12-26.88 60-60 60-33.12 0-60-26.88-60-60 0-33.12 26.88-60 60-60zm0 114.48c30.12 0 54.48-24.36 54.48-54.48 0-30.12-24.35-54.48-54.47-54.48-30.12 0-54.48 24.36-54.48 54.48 0 30.12 24.36 54.48 54.48 54.48zm.6-89.28c11.28 0 22.2 3.36 29.76 9.48.6.48.95 1.32.95 2.04v56.64c0 1.56-1.2 2.76-2.64 2.76h-9.6c-1.55 0-2.75-1.2-2.75-2.76v-49.2c-4.68-2.16-9.36-3.96-15.72-3.96-6.72 0-11.76 1.92-17.04 4.44v48.72c0 1.56-1.2 2.76-2.77 2.76h-9.48c-1.44 0-2.64-1.2-2.64-2.76v-55.56c0-.72.25-1.44.85-2.04 7.68-6.72 19.08-10.56 31.08-10.56zm25.32 65.52V334.6c-6.6-4.8-15.72-7.56-25.32-7.56-10.2 0-19.8 3.12-26.52 8.52v51.6h3.97V339.4c0-.96.6-1.92 1.56-2.4 6.24-3.12 12.48-5.88 21-5.88 8.16 0 13.8 2.64 19.32 5.04l.24.12c.95.48 1.67 1.44 1.67 2.52v48.36z" stroke="#000" stroke-opacity="0" fill="#4d27aa"/><use xlink:href="#k" transform="matrix(1,0,0,1,845.4330708661416,425.4412279121934) translate(23.759259259259267 13.166666666666668)"/><use xlink:href="#l" transform="matrix(1,0,0,1,845.4330708661416,425.4412279121934) translate(54.83333333333334 13.166666666666668)"/><use xlink:href="#m" transform="matrix(1,0,0,1,845.4330708661416,425.4412279121934) translate(103.68518518518519 13.166666666666668)"/><path d="M975.9 747.37l-.07 1.05-.26 1.07-.42 1-.57.93-.7.84-.85.7-.93.58-1 .42-1.08.25-1.05.1h-78.13l-.82.05-.77.2-.73.3-.67.4-.6.5-.5.6-.42.68-.3.73-.2.77-.05.82v17.47h-1.95V759.3l.08-1.06.27-1.06.42-1 .56-.95.7-.83.84-.7.93-.58 1.02-.42 1.06-.26 1.06-.08h78.13l.82-.07.76-.2.73-.3.68-.4.6-.52.52-.6.4-.67.3-.72.2-.76.06-.83v-36.12h1.95zm0-75.52h-1.94v-7h1.95z" stroke="#5e5e5e" stroke-width=".05" fill="#5e5e5e"/><path d="M975.9 664.87h-1.94v-1.06l.97.05.98-.04z" fill="#5e5e5e"/><path stroke="#5e5e5e" stroke-width=".05" fill="#5e5e5e"/><path d="M884.8 790.83l-7.5-13h15z" fill="#5e5e5e"/><path d="M884.8 792.78l-9.18-15.92H894zM879 778.8l5.8 10.08 5.82-10.07zM936.4 474.1l.07.83.2.77.3.73.4.67.5.6.6.5.68.42.73.3.77.2.82.05h27.5l1.05.08 1.07.26 1 .43.93.57.84.7.7.84.58.94.42 1 .25 1.07.1 1.06v56.75h-1.96v-56.67l-.07-.82-.2-.77-.3-.74-.4-.67-.52-.6-.6-.52-.67-.4-.72-.3-.76-.2-.83-.06h-27.5l-1.06-.08-1.06-.26-1-.42-.95-.57-.83-.72-.7-.83-.58-.94-.42-1-.26-1.06-.08-1.06v-30.24h1.95z" stroke="#5e5e5e" stroke-width=".05" fill="#5e5e5e"/><path d="M975.9 543.88l-.97-.03-.97.04v-1.08h1.95z" fill="#5e5e5e"/><path stroke="#5e5e5e" stroke-width=".05" fill="#5e5e5e"/><path d="M940.34 426.94h-9.8l4.9-8.5z" fill="#5e5e5e"/><path d="M941.47 426.94h-2.25l-3.8-6.55-3.77 6.54h-2.25l6.03-10.45z" stroke="#5e5e5e" stroke-width=".05" fill="#5e5e5e"/><path d="M983.3 59.8c0 13.45-10.67 24.64-24.6 24.64-13.43 0-24.6-10.83-24.6-24.63 0-13.44 10.7-24.63 24.6-24.63 13.45 0 24.6 10.7 24.6 24.64m-6.7 32.6l-17.9 25.12-17.87-25.1h-18.36v61.75h72.96V92.4zm-66.73 8.1c0 7.62-6.24 13.8-13.8 13.8-7.68 0-13.92-6.18-13.92-13.8 0-7.6 6.24-13.92 13.92-13.92 7.56 0 13.8 6.3 13.8 13.92m-3.96 19.28l-9.83 13.8-10.32-13.8h-10.32v34.4h41.16v-34.4z" stroke="#000" stroke-opacity="0" stroke-width="5.54" fill="#ffd9d9"/><path d="M934.1 59.8c0 13.4 10.73 24.18 23.68 24.54l6.3-48.26c-1.8-.47-3.6-.47-5.4-.47-13.44-.47-24.58 10.32-24.58 24.2m6.72 32.6h-18.36v61.77h26.88l5.33-42.44zm-58.67 8.06c0 7.6 6.3 13.88 13.85 13.88h1.4L901 88c-1.4-.46-3.2-.93-5-.93-7.54 0-13.85 5.8-13.85 13.4" stroke="#000" stroke-opacity="0" stroke-width="5.54" fill="#fff" fill-opacity=".2"/><path d="M995.43 92.45v61.72h-120v-34.4l11.64-10.12-3.84-7.55 4.56-10 7.67-4.07 10.08 4.07 16.92.35 18.96-19.88L935.9 57l10.8-16.86 13.93-2.2 17.88 8.13 2.77 16.62-4.44 11.73z" stroke="#000" stroke-opacity="0" stroke-width=".01" fill="#a62500" fill-opacity="0"/><use xlink:href="#n" transform="matrix(1,0,0,1,845.4330708661416,163.1740039900646) translate(72.62962962962962 13.166666666666668)"/><path d="M936.4 280.45h-1.94V178.67h1.95zm0-115.78h-1.94v-9.5h1.95z" stroke="#5e5e5e" stroke-width=".05" fill="#5e5e5e"/><path d="M936.4 155.2h-1.94v-1.03h1.95z" fill="#5e5e5e"/><path stroke="#5e5e5e" stroke-width=".05" fill="#5e5e5e"/><path d="M935.43 294.44l-7.5-13h15z" fill="#5e5e5e"/><path d="M935.43 296.4l-9.2-15.92h18.4zm-5.8-13.97l5.8 10.06 5.8-10.07z" stroke="#5e5e5e" stroke-width=".05" fill="#5e5e5e"/><path d="M998.43 1084.68a6 6 0 0 1 6-6h181a6 6 0 0 1 6 6v19a6 6 0 0 1-6 6h-181a6 6 0 0 1-6-6z" fill="none"/><use xlink:href="#o" transform="matrix(1,0,0,1,998.4330708661423,1078.6845443787133) translate(49.88271604938271 14.222222222222223)"/><use xlink:href="#p" transform="matrix(1,0,0,1,998.4330708661423,1078.6845443787133) translate(111.61111111111111 14.222222222222223)"/><use xlink:href="#q" transform="matrix(1,0,0,1,998.4330708661423,1078.6845443787133) translate(73.83333333333333 35.55555555555556)"/><path d="M1001.33 632.17v-6.48h6.48v6.47h-6.47zm-18.84 0v-6.48h6.35v6.47h-6.36zm-21.5 0v-6.48h6.5v6.47H961zm-18.95 0v-6.48h6.24v6.47h-6.25zm16.56-47.76v-15.95h32.65v15.96H958.6zm51.85 35.77h-4.2v-9.12c0-1.56-1.2-2.76-2.64-2.76h-6.83v-9.25c0-1.44-1.2-2.64-2.76-2.64h-16.3v-6.47H994c1.57 0 2.77-1.32 2.77-2.76V565.7c0-1.57-1.2-2.77-2.76-2.77h-38.15c-1.56 0-2.76 1.2-2.76 2.76v21.47c0 1.44 1.2 2.76 2.75 2.76h16.32v6.48h-16.32c-1.56 0-2.76 1.2-2.76 2.65v9.24h-6.85c-1.44 0-2.64 1.2-2.64 2.75v9.12h-4.2c-1.55 0-2.75 1.32-2.75 2.76v12c0 1.44 1.2 2.64 2.76 2.64h11.65c1.56 0 2.76-1.2 2.76-2.64v-12c0-1.44-1.2-2.76-2.75-2.76H949v-6.48h11.3v6.47h-2.05c-1.56 0-2.76 1.32-2.76 2.76v12c0 1.44 1.2 2.64 2.75 2.64h11.88c1.56 0 2.76-1.2 2.76-2.64v-12c0-1.44-1.2-2.76-2.77-2.76h-4.44v-9.12c0-1.56-1.2-2.76-2.65-2.76h-4.44v-6.5h32.65v6.5h-4.44c-1.43 0-2.63 1.2-2.63 2.75v9.12h-4.44c-1.56 0-2.76 1.32-2.76 2.76v12c0 1.44 1.2 2.64 2.76 2.64h11.88c1.57 0 2.77-1.2 2.77-2.64v-12c0-1.44-1.2-2.76-2.76-2.76h-2.03v-6.48h11.28v6.47h-2.28c-1.44 0-2.64 1.32-2.64 2.76v12c0 1.44 1.2 2.64 2.64 2.64h11.88c1.56 0 2.76-1.2 2.76-2.64v-12c0-1.44-1.2-2.76-2.75-2.76zm-35.52 38.28c-30.12 0-54.6-24.48-54.6-54.6s24.48-54.6 54.6-54.6 54.6 24.48 54.6 54.6-24.48 54.6-54.6 54.6zm0-114.6c-33.12 0-60 26.88-60 60 0 33.12 26.88 60 60 60 33.12 0 60-26.88 60-60 0-33.12-26.88-60-60-60z" stroke="#000" stroke-opacity="0" fill="#8c4fff"/><use xlink:href="#r" transform="matrix(1,0,0,1,884.9330708661423,672.8479213339069) translate(24.39506172839505 14.222222222222223)"/><use xlink:href="#s" transform="matrix(1,0,0,1,884.9330708661423,672.8479213339069) translate(116.09876543209877 14.222222222222223)"/><use xlink:href="#t" transform="matrix(1,0,0,1,884.9330708661423,672.8479213339069) translate(54.98765432098765 35.55555555555556)"/><path d="M576.32 543.85h120v120h-120v-120z" stroke="#000" stroke-opacity="0" fill="#7aa116"/><path d="M667.56 608.22l.56-4.12c5.33 3.2 5.4 4.54 5.4 4.54s-.95.75-5.96-.42zm-2.9-.84c-9.22-2.78-21.98-8.66-27.14-11.1v-.08c0-1.93-1.62-3.6-3.64-3.6s-3.63 1.67-3.63 3.6c0 2.02 1.6 3.62 3.63 3.62.9 0 1.7-.34 2.26-.84 6.14 2.85 18.82 8.65 28.1 11.42l-3.7 25.8v.24c0 2.27-10.1 6.38-26.5 6.38-16.63 0-26.8-4.1-26.8-6.38v-.25l-7.68-55.8c6.62 4.55 20.83 6.98 34.48 6.98 13.57 0 27.78-2.43 34.4-6.97l-3.8 26.98zm-65.9-32.85c.15-1.93 11.46-9.66 35.28-9.66 23.83 0 35.13 7.73 35.3 9.66v.67c-1.38 4.46-16.08 9.16-35.3 9.16-19.3 0-34-4.7-35.3-9.16v-.67zm73.56.1c0-5.22-14.94-12.78-38.28-12.78-23.34 0-38.28 7.56-38.28 12.77l.16 1.1 8.32 60.8c.16 6.8 18.33 9.33 29.8 9.33 14.22 0 29.32-3.28 29.48-9.33l3.63-25.36c2.02.5 3.64.75 4.93.75 1.78 0 3-.4 3.7-1.33.66-.67.82-1.5.66-2.44-.32-2.1-2.83-4.37-7.83-7.22l3.56-25.1.16-1.18z" stroke="#000" stroke-opacity="0" fill="#fff"/><use xlink:href="#u" transform="matrix(1,0,0,1,546.3218062033309,672.8479213339069) translate(49.58024691358024 14.222222222222223)"/><path d="M697.32 603.85h201.62" stroke="#5e5e5e" stroke-width="2" fill="none"/><path d="M697.35 604.82h-1.03v-1.95h1.03z" stroke="#5e5e5e" stroke-width=".05" fill="#5e5e5e"/><path d="M912.93 603.85l-13 7.5v-15z" stroke="#5e5e5e" stroke-width="2" fill="#5e5e5e"/><path d="M945.8 1147.02h143.13a6 6 0 0 0 6-6v-56.68" stroke="#5e5e5e" stroke-width="2" fill="none"/><path d="M945.83 1148h-1.03v-1.96h1.03z" stroke="#5e5e5e" stroke-width=".05" fill="#5e5e5e"/><path d="M1094.93 1070.35l7.5 13h-15z" stroke="#5e5e5e" stroke-width="2" fill="#5e5e5e"/><path d="M576.32 948.35h120v120h-120v-120z" stroke="#000" stroke-opacity="0" fill="#7aa116"/><path d="M667.56 1012.72l.56-4.12c5.33 3.2 5.4 4.54 5.4 4.54s-.95.75-5.96-.42zm-2.9-.84c-9.22-2.77-21.98-8.65-27.14-11.1v-.07c0-1.93-1.62-3.6-3.64-3.6s-3.63 1.67-3.63 3.6c0 2.02 1.6 3.62 3.63 3.62.9 0 1.7-.34 2.26-.84 6.14 2.86 18.82 8.65 28.1 11.42l-3.7 25.8v.24c0 2.27-10.1 6.4-26.5 6.4-16.63 0-26.8-4.13-26.8-6.4v-.25l-7.68-55.8c6.62 4.55 20.83 7 34.48 7 13.57 0 27.78-2.45 34.4-7l-3.8 26.98zm-65.9-32.85c.15-1.93 11.46-9.65 35.28-9.65 23.83 0 35.13 7.72 35.3 9.65v.68c-1.38 4.46-16.08 9.16-35.3 9.16-19.3 0-34-4.7-35.3-9.15v-.67zm73.56.1c0-5.22-14.94-12.78-38.28-12.78-23.34 0-38.28 7.56-38.28 12.77l.16 1.1 8.32 60.8c.16 6.8 18.33 9.33 29.8 9.33 14.22 0 29.32-3.27 29.48-9.32l3.63-25.37c2.02.5 3.64.75 4.93.75 1.78 0 3-.4 3.7-1.33.66-.67.82-1.5.66-2.44-.32-2.1-2.83-4.36-7.83-7.22l3.56-25.1.16-1.18z" stroke="#000" stroke-opacity="0" fill="#fff"/><use xlink:href="#v" transform="matrix(1,0,0,1,546.3218062033309,1077.35121104538) translate(46.5679012345679 14.222222222222223)"/><use xlink:href="#w" transform="matrix(1,0,0,1,546.3218062033309,1077.35121104538) translate(51.01234567901234 35.55555555555556)"/><path d="M1033.93 1008.35H712.3" stroke="#5e5e5e" stroke-width="2" fill="none"/><path d="M1034.93 1009.33h-1.02v-1.95h1.03z" stroke="#5e5e5e" stroke-width=".05" fill="#5e5e5e"/><path d="M698.32 1008.35l13-7.5v15z" stroke="#5e5e5e" stroke-width="2" fill="#5e5e5e"/><path d="M842.8 863.02h84v84h-84v-84z" stroke="#000" stroke-opacity="0" fill="#ed7100"/><path d="M871.16 918.66h26.23v-26.23h-26.24v26.23zm28.34-26.23h4.18v2.06h-4.18v4.23h4.18v2.1h-4.18v3.13h4.18v2.12h-4.18v4.17h4.18v2.12h-4.18v4.17h4.18v2.12h-4.18v.18c0 1.05-.88 1.94-1.94 1.94h-.17v4.17h-2.07v-4.17h-4.24v4.17h-2.12v-4.17h-3.12v4.17h-2.12v-4.17h-4.17v4.17h-2.12v-4.17h-4.17v4.17h-2.12v-4.17H871c-1.07 0-1.96-.9-1.96-1.94v-.18h-3.1v-2.12h3.1v-4.17h-3.1v-2.12h3.1v-4.17h-3.1v-2.12h3.1v-3.12h-3.1v-2.1h3.1v-4.25h-3.1v-2.07h3.1v-.17c0-1.06.9-1.94 1.95-1.94h.16v-4.18h2.12v4.18h4.17v-4.18h2.12v4.18h4.17v-4.18h2.12v4.18h3.12v-4.18h2.12v4.18h4.23v-4.18h2.06v4.18h.16c1.06 0 1.94.88 1.94 1.94v.17zm-13.64 39.75c0 .06-.06.12-.12.12h-28.1c-.06 0-.12-.06-.12-.12v-28.1c0-.06.06-.12.12-.12h6.17v-2.12h-6.16c-1.24 0-2.24 1-2.24 2.24v28.1c0 1.24 1 2.24 2.24 2.24h28.1c1.24 0 2.24-1 2.24-2.24v-5.1h-2.12v5.1zm28.34-54.33v28.1c0 1.24-1 2.24-2.23 2.24h-6.18v-2.12h6.17c.06 0 .12-.06.12-.12v-28.1c0-.07-.07-.13-.13-.13h-28.1c-.07 0-.13.06-.13.12v6.18h-2.1v-6.18c0-1.23 1-2.23 2.22-2.23h28.1c1.24 0 2.24 1 2.24 2.23z" stroke="#000" stroke-opacity="0" fill="#fff"/><use xlink:href="#x" transform="matrix(1,0,0,1,812.8033517941327,956.0178777120468) translate(19.209876543209873 14.222222222222223)"/><use xlink:href="#y" transform="matrix(1,0,0,1,812.8033517941327,956.0178777120468) translate(93.28395061728395 14.222222222222223)"/><path d="M807.64 888H642.32a6 6 0 0 0-6 6v38.36" stroke="#5e5e5e" stroke-width="2" fill="none"/><path d="M808.64 888.98h-1.03v-1.95h1.04z" stroke="#5e5e5e" stroke-width=".05" fill="#5e5e5e"/><path d="M636.32 946.35l-7.5-13h15z" stroke="#5e5e5e" stroke-width="2" fill="#5e5e5e"/><path d="M1094.93 947.35V894a6 6 0 0 0-6-6H976.96" stroke="#5e5e5e" stroke-width="2" fill="none"/><path d="M1095.9 948.35h-1.94v-1.02h1.95z" stroke="#5e5e5e" stroke-width=".05" fill="#5e5e5e"/><path d="M962.97 888l13-7.5v15z" stroke="#5e5e5e" stroke-width="2" fill="#5e5e5e"/><path d="M884.8 984.18v86.85" stroke="#5e5e5e" stroke-width="2" fill="none"/><path d="M885.78 984.2h-1.95v-1.02h1.95z" stroke="#5e5e5e" stroke-width=".05" fill="#5e5e5e"/><path d="M884.8 1085.02l-7.5-13h15z" stroke="#5e5e5e" stroke-width="2" fill="#5e5e5e"/><path d="M884.8 1086.02v-86.85" stroke="#5e5e5e" stroke-width="2" fill="none"/><path d="M885.78 1087.02h-1.95V1086h1.95z" stroke="#5e5e5e" stroke-width=".05" fill="#5e5e5e"/><path d="M884.8 985.18l7.5 13h-15z" stroke="#5e5e5e" stroke-width="2" fill="#5e5e5e"/><path d="M1094.93 1069.35v71.67a6 6 0 0 1-6 6H960.8" stroke="#5e5e5e" stroke-width="2" fill="none"/><path d="M1095.9 1069.38h-1.94v-1.03h1.95z" stroke="#5e5e5e" stroke-width=".05" fill="#5e5e5e"/><path d="M946.8 1147.02l13-7.5v15z" stroke="#5e5e5e" stroke-width="2" fill="#5e5e5e"/><path d="M697.32 1008.35h320.02" stroke="#5e5e5e" stroke-width="2" fill="none"/><path d="M697.35 1009.33h-1.03v-1.95h1.03z" stroke="#5e5e5e" stroke-width=".05" fill="#5e5e5e"/><path d="M1031.33 1008.35l-13 7.5v-15z" stroke="#5e5e5e" stroke-width="2" fill="#5e5e5e"/><path d="M961.97 888h126.96a6 6 0 0 1 6 6v38.36" stroke="#5e5e5e" stroke-width="2" fill="none"/><path d="M962 888.98h-1.03v-1.95H962z" stroke="#5e5e5e" stroke-width=".05" fill="#5e5e5e"/><path d="M1094.93 946.35l-7.5-13h15z" stroke="#5e5e5e" stroke-width="2" fill="#5e5e5e"/><path d="M636.32 947.35V894a6 6 0 0 1 6-6h150.33" stroke="#5e5e5e" stroke-width="2" fill="none"/><path d="M637.3 948.35h-1.95v-1.02h1.95z" stroke="#5e5e5e" stroke-width=".05" fill="#5e5e5e"/><path d="M806.64 888l-13 7.5v-15z" stroke="#5e5e5e" stroke-width="2" fill="#5e5e5e"/><defs><path fill="#cc4e00" d="M137 0h-34L2-248h35l83 218 83-218h36" id="z"/><path fill="#cc4e00" d="M24-231v-30h32v30H24zM24 0v-190h32V0H24" id="A"/><path fill="#cc4e00" d="M114-163C36-179 61-72 57 0H25l-1-190h30c1 12-1 29 2 39 6-27 23-49 58-41v29" id="B"/><path fill="#cc4e00" d="M59-47c-2 24 18 29 38 22v24C64 9 27 4 27-40v-127H5v-23h24l9-43h21v43h35v23H59v120" id="C"/><path fill="#cc4e00" d="M84 4C-5 8 30-112 23-190h32v120c0 31 7 50 39 49 72-2 45-101 50-169h31l1 190h-30c-1-10 1-25-2-33-11 22-28 36-60 37" id="D"/><path fill="#cc4e00" d="M141-36C126-15 110 5 73 4 37 3 15-17 15-53c-1-64 63-63 125-63 3-35-9-54-41-54-24 1-41 7-42 31l-33-3c5-37 33-52 76-52 45 0 72 20 72 64v82c-1 20 7 32 28 27v20c-31 9-61-2-59-35zM48-53c0 20 12 33 32 33 41-3 63-29 60-74-43 2-92-5-92 41" id="E"/><path fill="#cc4e00" d="M24 0v-261h32V0H24" id="F"/><g id="a"><use transform="matrix(0.03703703703703704,0,0,0.03703703703703704,0,0)" xlink:href="#z"/><use transform="matrix(0.03703703703703704,0,0,0.03703703703703704,8.62962962962963,0)" xlink:href="#A"/><use transform="matrix(0.03703703703703704,0,0,0.03703703703703704,11.555555555555557,0)" xlink:href="#B"/><use transform="matrix(0.03703703703703704,0,0,0.03703703703703704,15.962962962962965,0)" xlink:href="#C"/><use transform="matrix(0.03703703703703704,0,0,0.03703703703703704,19.666666666666675,0)" xlink:href="#D"/><use transform="matrix(0.03703703703703704,0,0,0.03703703703703704,27.074074074074076,0)" xlink:href="#E"/><use transform="matrix(0.03703703703703704,0,0,0.03703703703703704,34.48148148148149,0)" xlink:href="#F"/></g><path fill="#cc4e00" d="M115-194c55 1 70 41 70 98S169 2 115 4C84 4 66-9 55-30l1 105H24l-1-265h31l2 30c10-21 28-34 59-34zm-8 174c40 0 45-34 45-75s-6-73-45-74c-42 0-51 32-51 76 0 43 10 73 51 73" id="G"/><path fill="#cc4e00" d="M108 0H70L1-190h34L89-25l56-165h34" id="H"/><path fill="#cc4e00" d="M100-194c63 0 86 42 84 106H49c0 40 14 67 53 68 26 1 43-12 49-29l28 8c-11 28-37 45-77 45C44 4 14-33 15-96c1-61 26-98 85-98zm52 81c6-60-76-77-97-28-3 7-6 17-6 28h103" id="I"/><g id="b"><use transform="matrix(0.03703703703703704,0,0,0.03703703703703704,0,0)" xlink:href="#G"/><use transform="matrix(0.03703703703703704,0,0,0.03703703703703704,7.407407407407408,0)" xlink:href="#B"/><use transform="matrix(0.03703703703703704,0,0,0.03703703703703704,11.814814814814817,0)" xlink:href="#A"/><use transform="matrix(0.03703703703703704,0,0,0.03703703703703704,14.740740740740744,0)" xlink:href="#H"/><use transform="matrix(0.03703703703703704,0,0,0.03703703703703704,21.407407407407412,0)" xlink:href="#E"/><use transform="matrix(0.03703703703703704,0,0,0.03703703703703704,28.81481481481482,0)" xlink:href="#C"/><use transform="matrix(0.03703703703703704,0,0,0.03703703703703704,32.518518518518526,0)" xlink:href="#I"/></g><path fill="#cc4e00" d="M96-169c-40 0-48 33-48 73s9 75 48 75c24 0 41-14 43-38l32 2c-6 37-31 61-74 61-59 0-76-41-82-99-10-93 101-131 147-64 4 7 5 14 7 22l-32 3c-4-21-16-35-41-35" id="J"/><path fill="#cc4e00" d="M100-194c62-1 85 37 85 99 1 63-27 99-86 99S16-35 15-95c0-66 28-99 85-99zM99-20c44 1 53-31 53-75 0-43-8-75-51-75s-53 32-53 75 10 74 51 75" id="K"/><path fill="#cc4e00" d="M85-194c31 0 48 13 60 33l-1-100h32l1 261h-30c-2-10 0-23-3-31C134-8 116 4 85 4 32 4 16-35 15-94c0-66 23-100 70-100zm9 24c-40 0-46 34-46 75 0 40 6 74 45 74 42 0 51-32 51-76 0-42-9-74-50-73" id="L"/><g id="c"><use transform="matrix(0.03703703703703704,0,0,0.03703703703703704,0,0)" xlink:href="#J"/><use transform="matrix(0.03703703703703704,0,0,0.03703703703703704,6.666666666666668,0)" xlink:href="#F"/><use transform="matrix(0.03703703703703704,0,0,0.03703703703703704,9.592592592592595,0)" xlink:href="#K"/><use transform="matrix(0.03703703703703704,0,0,0.03703703703703704,17.000000000000004,0)" xlink:href="#D"/><use transform="matrix(0.03703703703703704,0,0,0.03703703703703704,24.407407407407412,0)" xlink:href="#L"/></g><path fill="#cc4e00" d="M87 75C49 33 22-17 22-94c0-76 28-126 65-167h31c-38 41-64 92-64 168S80 34 118 75H87" id="M"/><path fill="#cc4e00" d="M30-248c87 1 191-15 191 75 0 78-77 80-158 76V0H30v-248zm33 125c57 0 124 11 124-50 0-59-68-47-124-48v98" id="N"/><path fill="#cc4e00" d="M212-179c-10-28-35-45-73-45-59 0-87 40-87 99 0 60 29 101 89 101 43 0 62-24 78-52l27 14C228-24 195 4 139 4 59 4 22-46 18-125c-6-104 99-153 187-111 19 9 31 26 39 46" id="O"/><path fill="#cc4e00" d="M33-261c38 41 65 92 65 168S71 34 33 75H2C39 34 66-17 66-93S39-220 2-261h31" id="P"/><g id="d"><use transform="matrix(0.03703703703703704,0,0,0.03703703703703704,0,0)" xlink:href="#M"/><use transform="matrix(0.03703703703703704,0,0,0.03703703703703704,4.407407407407408,0)" xlink:href="#z"/><use transform="matrix(0.03703703703703704,0,0,0.03703703703703704,13.296296296296298,0)" xlink:href="#N"/><use transform="matrix(0.03703703703703704,0,0,0.03703703703703704,22.185185185185187,0)" xlink:href="#O"/><use transform="matrix(0.03703703703703704,0,0,0.03703703703703704,31.77777777777778,0)" xlink:href="#P"/></g><path fill="#248814" d="M30-248c87 1 191-15 191 75 0 78-77 80-158 76V0H30v-248zm33 125c57 0 124 11 124-50 0-59-68-47-124-48v98" id="Q"/><path fill="#248814" d="M84 4C-5 8 30-112 23-190h32v120c0 31 7 50 39 49 72-2 45-101 50-169h31l1 190h-30c-1-10 1-25-2-33-11 22-28 36-60 37" id="R"/><path fill="#248814" d="M115-194c53 0 69 39 70 98 0 66-23 100-70 100C84 3 66-7 56-30L54 0H23l1-261h32v101c10-23 28-34 59-34zm-8 174c40 0 45-34 45-75 0-40-5-75-45-74-42 0-51 32-51 76 0 43 10 73 51 73" id="S"/><path fill="#248814" d="M24 0v-261h32V0H24" id="T"/><path fill="#248814" d="M24-231v-30h32v30H24zM24 0v-190h32V0H24" id="U"/><path fill="#248814" d="M96-169c-40 0-48 33-48 73s9 75 48 75c24 0 41-14 43-38l32 2c-6 37-31 61-74 61-59 0-76-41-82-99-10-93 101-131 147-64 4 7 5 14 7 22l-32 3c-4-21-16-35-41-35" id="V"/><g id="e"><use transform="matrix(0.04938271604938272,0,0,0.04938271604938272,0,0)" xlink:href="#Q"/><use transform="matrix(0.04938271604938272,0,0,0.04938271604938272,11.851851851851853,0)" xlink:href="#R"/><use transform="matrix(0.04938271604938272,0,0,0.04938271604938272,21.7283950617284,0)" xlink:href="#S"/><use transform="matrix(0.04938271604938272,0,0,0.04938271604938272,31.60493827160494,0)" xlink:href="#T"/><use transform="matrix(0.04938271604938272,0,0,0.04938271604938272,35.50617283950618,0)" xlink:href="#U"/><use transform="matrix(0.04938271604938272,0,0,0.04938271604938272,39.40740740740741,0)" xlink:href="#V"/></g><path fill="#248814" d="M185-189c-5-48-123-54-124 2 14 75 158 14 163 119 3 78-121 87-175 55-17-10-28-26-33-46l33-7c5 56 141 63 141-1 0-78-155-14-162-118-5-82 145-84 179-34 5 7 8 16 11 25" id="W"/><path fill="#248814" d="M117-194c89-4 53 116 60 194h-32v-121c0-31-8-49-39-48C34-167 62-67 57 0H25l-1-190h30c1 10-1 24 2 32 11-22 29-35 61-36" id="X"/><path fill="#248814" d="M100-194c63 0 86 42 84 106H49c0 40 14 67 53 68 26 1 43-12 49-29l28 8c-11 28-37 45-77 45C44 4 14-33 15-96c1-61 26-98 85-98zm52 81c6-60-76-77-97-28-3 7-6 17-6 28h103" id="Y"/><path fill="#248814" d="M59-47c-2 24 18 29 38 22v24C64 9 27 4 27-40v-127H5v-23h24l9-43h21v43h35v23H59v120" id="Z"/><g id="f"><use transform="matrix(0.04938271604938272,0,0,0.04938271604938272,0,0)" xlink:href="#W"/><use transform="matrix(0.04938271604938272,0,0,0.04938271604938272,11.851851851851853,0)" xlink:href="#R"/><use transform="matrix(0.04938271604938272,0,0,0.04938271604938272,21.7283950617284,0)" xlink:href="#S"/><use transform="matrix(0.04938271604938272,0,0,0.04938271604938272,31.60493827160494,0)" xlink:href="#X"/><use transform="matrix(0.04938271604938272,0,0,0.04938271604938272,41.48148148148149,0)" xlink:href="#Y"/><use transform="matrix(0.04938271604938272,0,0,0.04938271604938272,51.35802469135803,0)" xlink:href="#Z"/></g><path fill="#147eba" d="M30-248c87 1 191-15 191 75 0 78-77 80-158 76V0H30v-248zm33 125c57 0 124 11 124-50 0-59-68-47-124-48v98" id="aa"/><path fill="#147eba" d="M114-163C36-179 61-72 57 0H25l-1-190h30c1 12-1 29 2 39 6-27 23-49 58-41v29" id="ab"/><path fill="#147eba" d="M24-231v-30h32v30H24zM24 0v-190h32V0H24" id="ac"/><path fill="#147eba" d="M108 0H70L1-190h34L89-25l56-165h34" id="ad"/><path fill="#147eba" d="M141-36C126-15 110 5 73 4 37 3 15-17 15-53c-1-64 63-63 125-63 3-35-9-54-41-54-24 1-41 7-42 31l-33-3c5-37 33-52 76-52 45 0 72 20 72 64v82c-1 20 7 32 28 27v20c-31 9-61-2-59-35zM48-53c0 20 12 33 32 33 41-3 63-29 60-74-43 2-92-5-92 41" id="ae"/><path fill="#147eba" d="M59-47c-2 24 18 29 38 22v24C64 9 27 4 27-40v-127H5v-23h24l9-43h21v43h35v23H59v120" id="af"/><path fill="#147eba" d="M100-194c63 0 86 42 84 106H49c0 40 14 67 53 68 26 1 43-12 49-29l28 8c-11 28-37 45-77 45C44 4 14-33 15-96c1-61 26-98 85-98zm52 81c6-60-76-77-97-28-3 7-6 17-6 28h103" id="ag"/><g id="g"><use transform="matrix(0.04938271604938272,0,0,0.04938271604938272,0,0)" xlink:href="#aa"/><use transform="matrix(0.04938271604938272,0,0,0.04938271604938272,11.851851851851853,0)" xlink:href="#ab"/><use transform="matrix(0.04938271604938272,0,0,0.04938271604938272,17.728395061728396,0)" xlink:href="#ac"/><use transform="matrix(0.04938271604938272,0,0,0.04938271604938272,21.62962962962963,0)" xlink:href="#ad"/><use transform="matrix(0.04938271604938272,0,0,0.04938271604938272,30.518518518518523,0)" xlink:href="#ae"/><use transform="matrix(0.04938271604938272,0,0,0.04938271604938272,40.39506172839506,0)" xlink:href="#af"/><use transform="matrix(0.04938271604938272,0,0,0.04938271604938272,45.333333333333336,0)" xlink:href="#ag"/></g><path fill="#147eba" d="M185-189c-5-48-123-54-124 2 14 75 158 14 163 119 3 78-121 87-175 55-17-10-28-26-33-46l33-7c5 56 141 63 141-1 0-78-155-14-162-118-5-82 145-84 179-34 5 7 8 16 11 25" id="ah"/><path fill="#147eba" d="M84 4C-5 8 30-112 23-190h32v120c0 31 7 50 39 49 72-2 45-101 50-169h31l1 190h-30c-1-10 1-25-2-33-11 22-28 36-60 37" id="ai"/><path fill="#147eba" d="M115-194c53 0 69 39 70 98 0 66-23 100-70 100C84 3 66-7 56-30L54 0H23l1-261h32v101c10-23 28-34 59-34zm-8 174c40 0 45-34 45-75 0-40-5-75-45-74-42 0-51 32-51 76 0 43 10 73 51 73" id="aj"/><path fill="#147eba" d="M117-194c89-4 53 116 60 194h-32v-121c0-31-8-49-39-48C34-167 62-67 57 0H25l-1-190h30c1 10-1 24 2 32 11-22 29-35 61-36" id="ak"/><g id="h"><use transform="matrix(0.04938271604938272,0,0,0.04938271604938272,0,0)" xlink:href="#ah"/><use transform="matrix(0.04938271604938272,0,0,0.04938271604938272,11.851851851851853,0)" xlink:href="#ai"/><use transform="matrix(0.04938271604938272,0,0,0.04938271604938272,21.7283950617284,0)" xlink:href="#aj"/><use transform="matrix(0.04938271604938272,0,0,0.04938271604938272,31.60493827160494,0)" xlink:href="#ak"/><use transform="matrix(0.04938271604938272,0,0,0.04938271604938272,41.48148148148149,0)" xlink:href="#ag"/><use transform="matrix(0.04938271604938272,0,0,0.04938271604938272,51.35802469135803,0)" xlink:href="#af"/></g><path fill="#147eba" d="M30-248c118-7 216 8 213 122C240-48 200 0 122 0H30v-248zM63-27c89 8 146-16 146-99s-60-101-146-95v194" id="al"/><path fill="#147eba" d="M160-131c35 5 61 23 61 61C221 17 115-2 30 0v-248c76 3 177-17 177 60 0 33-19 50-47 57zm-97-11c50-1 110 9 110-42 0-47-63-36-110-37v79zm0 115c55-2 124 14 124-45 0-56-70-42-124-44v89" id="am"/><g id="i"><use transform="matrix(0.04938271604938272,0,0,0.04938271604938272,0,0)" xlink:href="#al"/><use transform="matrix(0.04938271604938272,0,0,0.04938271604938272,12.790123456790125,0)" xlink:href="#am"/></g><path fill="#147eba" d="M87 75C49 33 22-17 22-94c0-76 28-126 65-167h31c-38 41-64 92-64 168S80 34 118 75H87" id="an"/><path fill="#147eba" d="M115-194c55 1 70 41 70 98S169 2 115 4C84 4 66-9 55-30l1 105H24l-1-265h31l2 30c10-21 28-34 59-34zm-8 174c40 0 45-34 45-75s-6-73-45-74c-42 0-51 32-51 76 0 43 10 73 51 73" id="ao"/><path fill="#147eba" d="M100-194c62-1 85 37 85 99 1 63-27 99-86 99S16-35 15-95c0-66 28-99 85-99zM99-20c44 1 53-31 53-75 0-43-8-75-51-75s-53 32-53 75 10 74 51 75" id="ap"/><path fill="#147eba" d="M135-143c-3-34-86-38-87 0 15 53 115 12 119 90S17 21 10-45l28-5c4 36 97 45 98 0-10-56-113-15-118-90-4-57 82-63 122-42 12 7 21 19 24 35" id="aq"/><path fill="#147eba" d="M177-190C167-65 218 103 67 71c-23-6-38-20-44-43l32-5c15 47 100 32 89-28v-30C133-14 115 1 83 1 29 1 15-40 15-95c0-56 16-97 71-98 29-1 48 16 59 35 1-10 0-23 2-32h30zM94-22c36 0 50-32 50-73 0-42-14-75-50-75-39 0-46 34-46 75s6 73 46 73" id="ar"/><path fill="#147eba" d="M33-261c38 41 65 92 65 168S71 34 33 75H2C39 34 66-17 66-93S39-220 2-261h31" id="as"/><g id="j"><use transform="matrix(0.04938271604938272,0,0,0.04938271604938272,0,0)" xlink:href="#an"/><use transform="matrix(0.04938271604938272,0,0,0.04938271604938272,5.8765432098765435,0)" xlink:href="#ao"/><use transform="matrix(0.04938271604938272,0,0,0.04938271604938272,15.753086419753087,0)" xlink:href="#ap"/><use transform="matrix(0.04938271604938272,0,0,0.04938271604938272,25.629629629629633,0)" xlink:href="#aq"/><use transform="matrix(0.04938271604938272,0,0,0.04938271604938272,34.51851851851852,0)" xlink:href="#af"/><use transform="matrix(0.04938271604938272,0,0,0.04938271604938272,39.45679012345679,0)" xlink:href="#ar"/><use transform="matrix(0.04938271604938272,0,0,0.04938271604938272,49.333333333333336,0)" xlink:href="#ab"/><use transform="matrix(0.04938271604938272,0,0,0.04938271604938272,55.20987654320988,0)" xlink:href="#ag"/><use transform="matrix(0.04938271604938272,0,0,0.04938271604938272,65.08641975308643,0)" xlink:href="#aq"/><use transform="matrix(0.04938271604938272,0,0,0.04938271604938272,73.97530864197532,0)" xlink:href="#as"/></g><g id="k"><use transform="matrix(0.03703703703703704,0,0,0.03703703703703704,0,0)" xlink:href="#z"/><use transform="matrix(0.03703703703703704,0,0,0.03703703703703704,8.88888888888889,0)" xlink:href="#N"/><use transform="matrix(0.03703703703703704,0,0,0.03703703703703704,17.77777777777778,0)" xlink:href="#O"/></g><path fill="#cc4e00" d="M33 0v-248h34V0H33" id="at"/><path fill="#cc4e00" d="M117-194c89-4 53 116 60 194h-32v-121c0-31-8-49-39-48C34-167 62-67 57 0H25l-1-190h30c1 10-1 24 2 32 11-22 29-35 61-36" id="au"/><g id="l"><use transform="matrix(0.03703703703703704,0,0,0.03703703703703704,0,0)" xlink:href="#at"/><use transform="matrix(0.03703703703703704,0,0,0.03703703703703704,3.703703703703704,0)" xlink:href="#au"/><use transform="matrix(0.03703703703703704,0,0,0.03703703703703704,11.111111111111112,0)" xlink:href="#C"/><use transform="matrix(0.03703703703703704,0,0,0.03703703703703704,14.814814814814817,0)" xlink:href="#I"/><use transform="matrix(0.03703703703703704,0,0,0.03703703703703704,22.222222222222225,0)" xlink:href="#B"/><use transform="matrix(0.03703703703703704,0,0,0.03703703703703704,26.629629629629633,0)" xlink:href="#au"/><use transform="matrix(0.03703703703703704,0,0,0.03703703703703704,34.03703703703704,0)" xlink:href="#I"/><use transform="matrix(0.03703703703703704,0,0,0.03703703703703704,41.44444444444444,0)" xlink:href="#C"/></g><path fill="#cc4e00" d="M143 4C61 4 22-44 18-125c-5-107 100-154 193-111 17 8 29 25 37 43l-32 9c-13-25-37-40-76-40-61 0-88 39-88 99 0 61 29 100 91 101 35 0 62-11 79-27v-45h-74v-28h105v86C228-13 192 4 143 4" id="av"/><path fill="#cc4e00" d="M206 0h-36l-40-164L89 0H53L-1-190h32L70-26l43-164h34l41 164 42-164h31" id="aw"/><path fill="#cc4e00" d="M179-190L93 31C79 59 56 82 12 73V49c39 6 53-20 64-50L1-190h34L92-34l54-156h33" id="ax"/><g id="m"><use transform="matrix(0.03703703703703704,0,0,0.03703703703703704,0,0)" xlink:href="#av"/><use transform="matrix(0.03703703703703704,0,0,0.03703703703703704,10.370370370370372,0)" xlink:href="#E"/><use transform="matrix(0.03703703703703704,0,0,0.03703703703703704,17.77777777777778,0)" xlink:href="#C"/><use transform="matrix(0.03703703703703704,0,0,0.03703703703703704,21.48148148148148,0)" xlink:href="#I"/><use transform="matrix(0.03703703703703704,0,0,0.03703703703703704,28.88888888888889,0)" xlink:href="#aw"/><use transform="matrix(0.03703703703703704,0,0,0.03703703703703704,38.48148148148148,0)" xlink:href="#E"/><use transform="matrix(0.03703703703703704,0,0,0.03703703703703704,45.888888888888886,0)" xlink:href="#ax"/></g><path fill="#cc4e00" d="M232-93c-1 65-40 97-104 97C67 4 28-28 28-90v-158h33c8 89-33 224 67 224 102 0 64-133 71-224h33v155" id="ay"/><path fill="#cc4e00" d="M135-143c-3-34-86-38-87 0 15 53 115 12 119 90S17 21 10-45l28-5c4 36 97 45 98 0-10-56-113-15-118-90-4-57 82-63 122-42 12 7 21 19 24 35" id="az"/><g id="n"><use transform="matrix(0.03703703703703704,0,0,0.03703703703703704,0,0)" xlink:href="#ay"/><use transform="matrix(0.03703703703703704,0,0,0.03703703703703704,9.592592592592593,0)" xlink:href="#az"/><use transform="matrix(0.03703703703703704,0,0,0.03703703703703704,16.25925925925926,0)" xlink:href="#I"/><use transform="matrix(0.03703703703703704,0,0,0.03703703703703704,23.66666666666667,0)" xlink:href="#B"/><use transform="matrix(0.03703703703703704,0,0,0.03703703703703704,28.074074074074076,0)" xlink:href="#az"/></g><path fill="#147eba" d="M266 0h-40l-56-210L115 0H75L2-248h35L96-30l15-64 43-154h32l59 218 59-218h35" id="aA"/><path fill="#147eba" d="M143 0L79-87 56-68V0H24v-261h32v163l83-92h37l-77 82L181 0h-38" id="aB"/><g id="o"><use transform="matrix(0.04938271604938272,0,0,0.04938271604938272,0,0)" xlink:href="#aA"/><use transform="matrix(0.04938271604938272,0,0,0.04938271604938272,16.39506172839506,0)" xlink:href="#ap"/><use transform="matrix(0.04938271604938272,0,0,0.04938271604938272,26.271604938271608,0)" xlink:href="#ab"/><use transform="matrix(0.04938271604938272,0,0,0.04938271604938272,32.148148148148145,0)" xlink:href="#aB"/><use transform="matrix(0.04938271604938272,0,0,0.04938271604938272,41.03703703703704,0)" xlink:href="#ag"/><use transform="matrix(0.04938271604938272,0,0,0.04938271604938272,50.91358024691358,0)" xlink:href="#ab"/></g><g id="p"><use transform="matrix(0.04938271604938272,0,0,0.04938271604938272,0,0)" xlink:href="#an"/><use transform="matrix(0.04938271604938272,0,0,0.04938271604938272,5.8765432098765435,0)" xlink:href="#ar"/><use transform="matrix(0.04938271604938272,0,0,0.04938271604938272,15.753086419753087,0)" xlink:href="#ap"/><use transform="matrix(0.04938271604938272,0,0,0.04938271604938272,25.629629629629633,0)" xlink:href="#as"/></g><path fill="#147eba" d="M233-177c-1 41-23 64-60 70L243 0h-38l-65-103H63V0H30v-248c88 3 205-21 203 71zM63-129c60-2 137 13 137-47 0-61-80-42-137-45v92" id="aC"/><path fill="#147eba" d="M85-194c31 0 48 13 60 33l-1-100h32l1 261h-30c-2-10 0-23-3-31C134-8 116 4 85 4 32 4 16-35 15-94c0-66 23-100 70-100zm9 24c-40 0-46 34-46 75 0 40 6 74 45 74 42 0 51-32 51-76 0-42-9-74-50-73" id="aD"/><g id="q"><use transform="matrix(0.04938271604938272,0,0,0.04938271604938272,0,0)" xlink:href="#aC"/><use transform="matrix(0.04938271604938272,0,0,0.04938271604938272,12.790123456790125,0)" xlink:href="#ag"/><use transform="matrix(0.04938271604938272,0,0,0.04938271604938272,22.66666666666667,0)" xlink:href="#aD"/><use transform="matrix(0.04938271604938272,0,0,0.04938271604938272,32.543209876543216,0)" xlink:href="#ac"/><use transform="matrix(0.04938271604938272,0,0,0.04938271604938272,36.44444444444445,0)" xlink:href="#aq"/></g><path d="M205 0l-28-72H64L36 0H1l101-248h38L239 0h-34zm-38-99l-47-123c-12 45-31 82-46 123h93" id="aE"/><path d="M115-194c55 1 70 41 70 98S169 2 115 4C84 4 66-9 55-30l1 105H24l-1-265h31l2 30c10-21 28-34 59-34zm-8 174c40 0 45-34 45-75s-6-73-45-74c-42 0-51 32-51 76 0 43 10 73 51 73" id="aF"/><path d="M24 0v-261h32V0H24" id="aG"/><path d="M24-231v-30h32v30H24zM24 0v-190h32V0H24" id="aH"/><path d="M96-169c-40 0-48 33-48 73s9 75 48 75c24 0 41-14 43-38l32 2c-6 37-31 61-74 61-59 0-76-41-82-99-10-93 101-131 147-64 4 7 5 14 7 22l-32 3c-4-21-16-35-41-35" id="aI"/><path d="M141-36C126-15 110 5 73 4 37 3 15-17 15-53c-1-64 63-63 125-63 3-35-9-54-41-54-24 1-41 7-42 31l-33-3c5-37 33-52 76-52 45 0 72 20 72 64v82c-1 20 7 32 28 27v20c-31 9-61-2-59-35zM48-53c0 20 12 33 32 33 41-3 63-29 60-74-43 2-92-5-92 41" id="aJ"/><path d="M59-47c-2 24 18 29 38 22v24C64 9 27 4 27-40v-127H5v-23h24l9-43h21v43h35v23H59v120" id="aK"/><path d="M100-194c62-1 85 37 85 99 1 63-27 99-86 99S16-35 15-95c0-66 28-99 85-99zM99-20c44 1 53-31 53-75 0-43-8-75-51-75s-53 32-53 75 10 74 51 75" id="aL"/><path d="M117-194c89-4 53 116 60 194h-32v-121c0-31-8-49-39-48C34-167 62-67 57 0H25l-1-190h30c1 10-1 24 2 32 11-22 29-35 61-36" id="aM"/><g id="r"><use transform="matrix(0.04938271604938272,0,0,0.04938271604938272,0,0)" xlink:href="#aE"/><use transform="matrix(0.04938271604938272,0,0,0.04938271604938272,11.851851851851853,0)" xlink:href="#aF"/><use transform="matrix(0.04938271604938272,0,0,0.04938271604938272,21.7283950617284,0)" xlink:href="#aF"/><use transform="matrix(0.04938271604938272,0,0,0.04938271604938272,31.60493827160494,0)" xlink:href="#aG"/><use transform="matrix(0.04938271604938272,0,0,0.04938271604938272,35.50617283950618,0)" xlink:href="#aH"/><use transform="matrix(0.04938271604938272,0,0,0.04938271604938272,39.40740740740741,0)" xlink:href="#aI"/><use transform="matrix(0.04938271604938272,0,0,0.04938271604938272,48.296296296296305,0)" xlink:href="#aJ"/><use transform="matrix(0.04938271604938272,0,0,0.04938271604938272,58.17283950617284,0)" xlink:href="#aK"/><use transform="matrix(0.04938271604938272,0,0,0.04938271604938272,63.111111111111114,0)" xlink:href="#aH"/><use transform="matrix(0.04938271604938272,0,0,0.04938271604938272,67.01234567901236,0)" xlink:href="#aL"/><use transform="matrix(0.04938271604938272,0,0,0.04938271604938272,76.8888888888889,0)" xlink:href="#aM"/></g><path d="M30 0v-248h33v221h125V0H30" id="aN"/><path d="M85-194c31 0 48 13 60 33l-1-100h32l1 261h-30c-2-10 0-23-3-31C134-8 116 4 85 4 32 4 16-35 15-94c0-66 23-100 70-100zm9 24c-40 0-46 34-46 75 0 40 6 74 45 74 42 0 51-32 51-76 0-42-9-74-50-73" id="aO"/><g id="s"><use transform="matrix(0.04938271604938272,0,0,0.04938271604938272,0,0)" xlink:href="#aN"/><use transform="matrix(0.04938271604938272,0,0,0.04938271604938272,9.876543209876544,0)" xlink:href="#aL"/><use transform="matrix(0.04938271604938272,0,0,0.04938271604938272,19.75308641975309,0)" xlink:href="#aJ"/><use transform="matrix(0.04938271604938272,0,0,0.04938271604938272,29.629629629629633,0)" xlink:href="#aO"/></g><path d="M160-131c35 5 61 23 61 61C221 17 115-2 30 0v-248c76 3 177-17 177 60 0 33-19 50-47 57zm-97-11c50-1 110 9 110-42 0-47-63-36-110-37v79zm0 115c55-2 124 14 124-45 0-56-70-42-124-44v89" id="aP"/><path d="M100-194c63 0 86 42 84 106H49c0 40 14 67 53 68 26 1 43-12 49-29l28 8c-11 28-37 45-77 45C44 4 14-33 15-96c1-61 26-98 85-98zm52 81c6-60-76-77-97-28-3 7-6 17-6 28h103" id="aQ"/><path d="M114-163C36-179 61-72 57 0H25l-1-190h30c1 12-1 29 2 39 6-27 23-49 58-41v29" id="aR"/><g id="t"><use transform="matrix(0.04938271604938272,0,0,0.04938271604938272,0,0)" xlink:href="#aP"/><use transform="matrix(0.04938271604938272,0,0,0.04938271604938272,11.851851851851853,0)" xlink:href="#aJ"/><use transform="matrix(0.04938271604938272,0,0,0.04938271604938272,21.7283950617284,0)" xlink:href="#aG"/><use transform="matrix(0.04938271604938272,0,0,0.04938271604938272,25.629629629629633,0)" xlink:href="#aJ"/><use transform="matrix(0.04938271604938272,0,0,0.04938271604938272,35.50617283950618,0)" xlink:href="#aM"/><use transform="matrix(0.04938271604938272,0,0,0.04938271604938272,45.38271604938272,0)" xlink:href="#aI"/><use transform="matrix(0.04938271604938272,0,0,0.04938271604938272,54.27160493827161,0)" xlink:href="#aQ"/><use transform="matrix(0.04938271604938272,0,0,0.04938271604938272,64.14814814814815,0)" xlink:href="#aR"/></g><path d="M141 0L90-78 38 0H4l68-98-65-92h35l48 74 47-74h35l-64 92 68 98h-35" id="aS"/><path d="M33 0v-38h34V0H33" id="aT"/><path d="M106-169C34-169 62-67 57 0H25v-261h32l-1 103c12-21 28-36 61-36 89 0 53 116 60 194h-32v-121c2-32-8-49-39-48" id="aU"/><path d="M210-169c-67 3-38 105-44 169h-31v-121c0-29-5-50-35-48C34-165 62-65 56 0H25l-1-190h30c1 10-1 24 2 32 10-44 99-50 107 0 11-21 27-35 58-36 85-2 47 119 55 194h-31v-121c0-29-5-49-35-48" id="aV"/><g id="u"><use transform="matrix(0.04938271604938272,0,0,0.04938271604938272,0,0)" xlink:href="#aH"/><use transform="matrix(0.04938271604938272,0,0,0.04938271604938272,3.901234567901235,0)" xlink:href="#aM"/><use transform="matrix(0.04938271604938272,0,0,0.04938271604938272,13.777777777777779,0)" xlink:href="#aO"/><use transform="matrix(0.04938271604938272,0,0,0.04938271604938272,23.654320987654323,0)" xlink:href="#aQ"/><use transform="matrix(0.04938271604938272,0,0,0.04938271604938272,33.53086419753087,0)" xlink:href="#aS"/><use transform="matrix(0.04938271604938272,0,0,0.04938271604938272,42.41975308641976,0)" xlink:href="#aT"/><use transform="matrix(0.04938271604938272,0,0,0.04938271604938272,47.35802469135803,0)" xlink:href="#aU"/><use transform="matrix(0.04938271604938272,0,0,0.04938271604938272,57.23456790123457,0)" xlink:href="#aK"/><use transform="matrix(0.04938271604938272,0,0,0.04938271604938272,62.17283950617284,0)" xlink:href="#aV"/><use transform="matrix(0.04938271604938272,0,0,0.04938271604938272,76.93827160493828,0)" xlink:href="#aG"/></g><path d="M135-143c-3-34-86-38-87 0 15 53 115 12 119 90S17 21 10-45l28-5c4 36 97 45 98 0-10-56-113-15-118-90-4-57 82-63 122-42 12 7 21 19 24 35" id="aW"/><path d="M0 4l72-265h28L28 4H0" id="aX"/><g id="v"><use transform="matrix(0.04938271604938272,0,0,0.04938271604938272,0,0)" xlink:href="#aF"/><use transform="matrix(0.04938271604938272,0,0,0.04938271604938272,9.876543209876544,0)" xlink:href="#aR"/><use transform="matrix(0.04938271604938272,0,0,0.04938271604938272,15.753086419753087,0)" xlink:href="#aL"/><use transform="matrix(0.04938271604938272,0,0,0.04938271604938272,25.629629629629633,0)" xlink:href="#aI"/><use transform="matrix(0.04938271604938272,0,0,0.04938271604938272,34.51851851851852,0)" xlink:href="#aQ"/><use transform="matrix(0.04938271604938272,0,0,0.04938271604938272,44.39506172839506,0)" xlink:href="#aW"/><use transform="matrix(0.04938271604938272,0,0,0.04938271604938272,53.28395061728394,0)" xlink:href="#aW"/><use transform="matrix(0.04938271604938272,0,0,0.04938271604938272,62.172839506172835,0)" xlink:href="#aQ"/><use transform="matrix(0.04938271604938272,0,0,0.04938271604938272,72.04938271604938,0)" xlink:href="#aO"/><use transform="matrix(0.04938271604938272,0,0,0.04938271604938272,81.92592592592592,0)" xlink:href="#aX"/></g><path d="M84 4C-5 8 30-112 23-190h32v120c0 31 7 50 39 49 72-2 45-101 50-169h31l1 190h-30c-1-10 1-25-2-33-11 22-28 36-60 37" id="aY"/><g id="w"><use transform="matrix(0.04938271604938272,0,0,0.04938271604938272,0,0)" xlink:href="#aY"/><use transform="matrix(0.04938271604938272,0,0,0.04938271604938272,9.876543209876544,0)" xlink:href="#aF"/><use transform="matrix(0.04938271604938272,0,0,0.04938271604938272,19.75308641975309,0)" xlink:href="#aG"/><use transform="matrix(0.04938271604938272,0,0,0.04938271604938272,23.654320987654323,0)" xlink:href="#aL"/><use transform="matrix(0.04938271604938272,0,0,0.04938271604938272,33.53086419753087,0)" xlink:href="#aJ"/><use transform="matrix(0.04938271604938272,0,0,0.04938271604938272,43.40740740740741,0)" xlink:href="#aO"/><use transform="matrix(0.04938271604938272,0,0,0.04938271604938272,53.283950617283956,0)" xlink:href="#aQ"/><use transform="matrix(0.04938271604938272,0,0,0.04938271604938272,63.1604938271605,0)" xlink:href="#aO"/><use transform="matrix(0.04938271604938272,0,0,0.04938271604938272,73.03703703703704,0)" xlink:href="#aX"/></g><path fill="#147eba" d="M96-169c-40 0-48 33-48 73s9 75 48 75c24 0 41-14 43-38l32 2c-6 37-31 61-74 61-59 0-76-41-82-99-10-93 101-131 147-64 4 7 5 14 7 22l-32 3c-4-21-16-35-41-35" id="aZ"/><g id="x"><use transform="matrix(0.04938271604938272,0,0,0.04938271604938272,0,0)" xlink:href="#am"/><use transform="matrix(0.04938271604938272,0,0,0.04938271604938272,11.851851851851853,0)" xlink:href="#ae"/><use transform="matrix(0.04938271604938272,0,0,0.04938271604938272,21.7283950617284,0)" xlink:href="#aZ"/><use transform="matrix(0.04938271604938272,0,0,0.04938271604938272,30.617283950617285,0)" xlink:href="#aB"/><use transform="matrix(0.04938271604938272,0,0,0.04938271604938272,39.50617283950618,0)" xlink:href="#ag"/><use transform="matrix(0.04938271604938272,0,0,0.04938271604938272,49.38271604938272,0)" xlink:href="#ak"/><use transform="matrix(0.04938271604938272,0,0,0.04938271604938272,59.25925925925927,0)" xlink:href="#aD"/></g><g id="y"><use transform="matrix(0.04938271604938272,0,0,0.04938271604938272,0,0)" xlink:href="#an"/><use transform="matrix(0.04938271604938272,0,0,0.04938271604938272,5.8765432098765435,0)" xlink:href="#ar"/><use transform="matrix(0.04938271604938272,0,0,0.04938271604938272,15.753086419753087,0)" xlink:href="#ap"/><use transform="matrix(0.04938271604938272,0,0,0.04938271604938272,25.629629629629633,0)" xlink:href="#as"/></g></defs></g></svg>